%
T1C.01378F095S3
X158322Y140129
X158463Y138661
X159992Y139807
X160052Y138158
X160696Y138842
X164079Y139073
X164158Y140073
X164938Y139031
X16498Y140047
X165907Y140026
X165907Y139031
X166971Y139031
X167442Y140057
X167892Y139073
X168631Y13972
X168685Y140632
X169106Y140151
X16915Y139419
X179084Y139996
X181009Y140417
X183051Y140503
X183854Y140463
X185621Y140285
X186874Y140285
X188335Y139189
X192107Y140333
X192886Y140463
X193856Y138147
X195089Y140221
X195383Y140441
X199354Y138609
X199528Y139678
X200186Y140378
X201459Y141952
X20145Y142381
X201445Y142777
X201345Y140914
X200147Y141248
X19969Y142786
X19969Y142425
X198925Y141967
X198415Y142931
X198128Y142824
X197808Y142558
X197353Y14117
X196884Y141545
X196479Y141691
X19622Y141357
X195953Y141722
X195549Y141521
X195151Y141691
X195115Y141011
X19494Y140719
X194357Y141647
X194168Y14132
X192915Y141028
X192728Y141564
X192532Y142538
X19235Y140739
X191925Y142949
X191486Y141817
X191005Y142322
X190624Y142587
X190183Y142934
X190145Y142626
X189851Y142555
X189778Y142063
X189187Y141264
X18918Y142154
X188905Y140821
X188657Y141709
X188448Y140978
X187084Y141033
X186982Y142259
X186862Y141788
X186788Y14068
X185387Y140664
X185272Y142443
X185245Y141829
X18518Y141206
X184467Y141415
X184438Y140712
X183463Y141284
X18275Y143119
X182728Y14127
X182697Y14239
X182295Y142622
X18179Y142497
X181652Y141119
X180733Y141625
X179768Y140877
X179282Y14135
X178541Y142325
X178161Y142442
X177633Y142187
X177334Y14216
X176968Y142168
X176277Y141486
X1762Y142187
X176028Y140829
X173783Y142382
X173646Y141349
X173427Y143031
X173223Y141964
X173194Y142631
X173183Y141318
X172905Y142776
X172643Y141873
X172591Y142703
X172036Y142972
X170956Y142916
X169166Y141646
X169144Y140971
X169062Y142502
X168778Y141469
X168115Y14177
X167893Y142088
X167574Y14227
X166943Y141594
X16622Y141819
X165928Y14078
X165001Y140801
X164958Y141829
X164116Y140843
X164088Y141731
X164064Y142431
X161022Y14267
X160837Y141457
X160038Y142541
X15967Y141215
X158624Y142443
X158141Y141678
X160669Y14504
X160671Y145632
X161541Y145037
X161542Y145636
X161672Y143963
X161898Y144789
X162579Y144883
X163748Y143629
X163777Y144248
X163782Y144758
X164146Y145368
X164209Y144241
X164249Y143757
X165056Y14359
X165193Y145467
X16532Y144117
X165809Y143824
X166192Y144201
X166366Y14489
X166787Y143492
X167133Y144466
X167294Y145629
X167574Y145099
X168353Y145112
X168914Y145201
X168928Y144627
X16893Y143513
X169279Y143998
X169397Y143173
X171039Y143176
X171494Y144469
X171711Y143983
X172504Y143997
X172699Y144553
X174058Y145009
X174462Y144597
X174516Y14554
X174774Y144626
X17486Y144336
X174885Y144924
X175381Y144126
X17567Y145529
X175796Y144365
X175803Y144942
X176399Y14548
X176464Y144949
X177198Y14399
X177625Y143991
X177921Y143986
X177943Y145175
X178199Y144205
X178549Y144096
X179018Y144381
X179238Y143575
X179433Y145266
X181103Y145203
X18151Y144862
X18185Y145328
X182539Y14539
X182931Y143739
X183533Y14539
X184144Y14346
X184485Y145562
X184497Y145147
X184601Y143741
X184826Y144851
X184841Y143505
X185338Y143293
X185567Y144655
X186627Y143761
X189023Y144875
X189034Y145373
X190869Y145223
X1912Y145465
X191731Y145354
X192197Y145393
X193503Y145326
X194137Y145387
X196845Y1432
X197025Y144028
X19772Y14402
X19804Y144278
X199931Y145114
X199937Y144153
X200978Y145128
X200984Y144145
X201472Y143176
X200978Y146089
X200971Y147882
X200965Y146985
X199918Y146984
X199917Y146102
X199909Y147888
X199616Y147415
X198652Y147787
X198608Y147415
X197769Y147768
X197393Y147819
X192515Y146222
X191902Y14621
X191824Y146519
X190359Y147055
X190179Y146397
X190083Y147829
X190043Y146667
X189885Y146923
X18956Y147517
X187472Y147959
X187453Y147535
X187342Y145716
X18723Y146366
X186473Y147548
X18632Y147212
X186208Y147996
X185381Y147222
X18513Y147381
X182766Y147385
X18263Y146859
X182541Y146058
X181962Y147229
X181916Y145769
X181495Y147708
X181159Y147652
X181127Y145802
X181121Y147129
X179403Y145968
X178927Y148122
X17833Y148133
X178237Y145932
X176871Y145725
X175669Y146652
X175641Y147396
X175641Y147
X175601Y147845
X174533Y146328
X174322Y1477
X174322Y14708
X171354Y147607
X170101Y147673
X16903Y146587
X168908Y145758
X168555Y147572
X168241Y147613
X167893Y147606
X167216Y146562
X166523Y145656
X166142Y147451
X165869Y146078
X165621Y146589
X165181Y146252
X164772Y147859
X164167Y147575
X163964Y146039
X163587Y147945
X162454Y14565
X162439Y146157
X161741Y146048
X159509Y147952
X159249Y148733
X160701Y150391
X160875Y149411
X160994Y148771
X161278Y148496
X161369Y149292
X161635Y150354
X163723Y14913
X16397Y14855
X164636Y148895
X16646Y149366
X167586Y148487
X167622Y149677
X168574Y149924
X171103Y148491
X171591Y149269
X173379Y149253
X173385Y148478
X173453Y149824
X174506Y148227
X174624Y149253
X174626Y15039
X175434Y149007
X175508Y148291
X175515Y149718
X177451Y150446
X177876Y149885
X179264Y149885
X181121Y149908
X181123Y150378
X181576Y149724
X181788Y149224
X184642Y148981
X186957Y150351
X186976Y149723
X187297Y149289
X187388Y150547
X187414Y149859
X187846Y148395
X188924Y150002
X189352Y148713
X189371Y150467
X189429Y149688
X189511Y149043
X189524Y148357
X19035Y149787
X190972Y149769
X191612Y149868
X197393Y148627
X197407Y150242
X197407Y149439
X198655Y149748
X198656Y148829
X199915Y14905
X199937Y150295
X200957Y150281
X200967Y149022
X200964Y152485
X200964Y151356
X199921Y152491
X199915Y151356
X198668Y150763
X198655Y151734
X198642Y152646
X19771Y15264
X197706Y15176
X196785Y152653
X196769Y151804
X194962Y152258
X194843Y152659
X194427Y152265
X194003Y152392
X193769Y151872
X193609Y152325
X19351Y151285
X193498Y150966
X193498Y151589
X192583Y152761
X192534Y152338
X191363Y152791
X191255Y152356
X190826Y152334
X188799Y152843
X188692Y150699
X188507Y152614
X187862Y152679
X187298Y151133
X187084Y152655
X186684Y152929
X185507Y152842
X185473Y151794
X184952Y151936
X184677Y152835
X184351Y151708
X183573Y152841
X183458Y151699
X182479Y151403
X181575Y15083
X179264Y151285
X177876Y151439
X177781Y15278
X177284Y151347
X177073Y15241
X175366Y151783
X174825Y152102
X173941Y151213
X173656Y150984
X173548Y153025
X17335Y151001
X17175Y15092
X171632Y152552
X169701Y1512
X169523Y152707
X168551Y153045
X167979Y150821
X167916Y151874
X166726Y152549
X166432Y150647
X165536Y152271
X165214Y151041
X163512Y150959
X161735Y151169
X16158Y150757
X160994Y150702
X160646Y151288
X15951Y150751
X159502Y152888
X159587Y154988
X159773Y153377
X160675Y153688
X161435Y155204
X161677Y15484
X163347Y154772
X163427Y155203
X163744Y154903
X165357Y15354
X166349Y154255
X16761Y154563
X16884Y155603
X169526Y154279
X171655Y154681
X173572Y15487
X175204Y153995
X177006Y155198
X177178Y153573
X177665Y15557
X177747Y153436
X177838Y154446
X178526Y155397
X181492Y154217
X183576Y153317
X183616Y155443
X185278Y155628
X185476Y153841
X185702Y155618
X18625Y153157
X189936Y155449
X190221Y155518
X190347Y155188
X190727Y153986
X190943Y15431
X191116Y153809
X191934Y153977
X192334Y154156
X193019Y154242
X19302Y153185
X194943Y155418
X195127Y15421
X195135Y154795
X195561Y154169
X195743Y15526
X199835Y155259
X200398Y153959
X200617Y155058
X200795Y154047
X201545Y153778
X20157Y156218
X201495Y156732
X20117Y156424
X200694Y15567
X200386Y156329
X19866Y157786
X198169Y157739
X198058Y15633
X197317Y156592
X19695Y156475
X196742Y15685
X196159Y156475
X195693Y156509
X195526Y155942
X194435Y157533
X193692Y156158
X193253Y156534
X19317Y157541
X192908Y155662
X191704Y156567
X191671Y157558
X190408Y155788
X190113Y156584
X19008Y157541
X189907Y155817
X189544Y155719
X188523Y157575
X18849Y156642
X186999Y157566
X186941Y156567
X186386Y157406
X185457Y156232
X185114Y156908
X184772Y156313
X184584Y157587
X184142Y156177
X183737Y157322
X183601Y156036
X183323Y156527
X182584Y157307
X181794Y156323
X180299Y157685
X179338Y156625
X176197Y15584
X174871Y156744
X174647Y156975
X174619Y157271
X171358Y15597
X171356Y156336
X170967Y156343
X170165Y155698
X169455Y15681
X167823Y156289
X166948Y157614
X166476Y15572
X165278Y155841
X165242Y157104
X16516Y158117
X164131Y155794
X163835Y156379
X163824Y157419
X163734Y155684
X163302Y157589
X162552Y157123
X162109Y157964
X16187Y155733
X161825Y156964
X161381Y156249
X160695Y156575
X1606Y155991
X158553Y158225
X159439Y158214
X159894Y158373
X161382Y158328
X163915Y158498
X165239Y159791
X165329Y15897
X165836Y15998
X16586Y159034
X199219Y158473
X201014Y158525
X201405Y158379
T2C.01969F095S3
X179843Y141972
X179844Y143342
X183099Y144152
X186817Y144152
X197192Y152715
X197192Y153985
X189335Y152921
X189333Y151705
T3C.03937F197S55
X172394Y14077
X173379Y14077
X174435Y14077
X175354Y14077
X195278Y145902
X195278Y14669
X196144Y145902
X196144Y14669
X196144Y147477
X196144Y148264
X196144Y149052
X196144Y149839
X196144Y150627
X196144Y151414
X195278Y151414
X195278Y150627
T4C.04F139S55
X171366Y139561
X171366Y138561
X172366Y139561
X172366Y138561
X173366Y139561
X173366Y138561
X174366Y139561
X174366Y138561
X175366Y139561
X175366Y138561
X176366Y139561
X176366Y138561
X177366Y139561
X177366Y138561
X178366Y139561
X178366Y138561
X180364Y139561
X180364Y138561
X181364Y139561
X181364Y138561
X182364Y139561
X182364Y138561
X183364Y139561
X183364Y138561
X184364Y139561
X184364Y138561
X185364Y139561
X185364Y138561
X186364Y139561
X186364Y138561
X187364Y139561
X187364Y138561
X185362Y158559
X185362Y159559
X184362Y158559
X184362Y159559
X183362Y158559
X183362Y159559
X182362Y158559
X182362Y159559
X181362Y158559
X181362Y159559
X180362Y158559
X180362Y159559
X179362Y158559
X179362Y159559
X178362Y158559
X178362Y159559
T5C.04331F139S55
X189365Y139562
X189365Y138562
X190365Y139562
X190365Y138562
X191365Y139562
X191365Y138562
X192365Y139562
X192365Y138562
X193365Y139562
X193365Y138562
X194365Y139562
X194365Y138562
X195365Y139562
X195365Y138562
X196365Y139562
X196365Y138562
X197365Y139562
X197365Y138562
X198365Y139562
X198365Y138562
X196365Y15856
X196365Y15956
X195365Y15856
X195365Y15956
X194365Y15856
X194365Y15956
X193365Y15856
X193365Y15956
X192365Y15856
X192365Y15956
X191365Y15856
X191365Y15956
X190365Y15856
X190365Y15956
X189365Y15856
X189365Y15956
X188365Y15856
X188365Y15956
X187365Y15856
X187365Y15956
X176766Y158562
X176766Y159562
X175766Y158562
X175766Y159562
X174766Y158562
X174766Y159562
X173766Y158562
X173766Y159562
X172766Y158562
X172766Y159562
X171766Y158562
X171766Y159562
X170766Y158562
X170766Y159562
X169766Y158562
X169766Y159562
X168766Y158562
X168766Y159562
X167766Y158562
X167766Y159562
T6C.07087F081S55
X158654Y144236
X158654Y146244
X159633Y145231
X160662Y146244
X160662Y144236
X160662Y155312
X160662Y15732
X159633Y156308
X158654Y155312
X158654Y15732
M30
