*
*
G04 PADS 9.5 Build Number: 522968 generated Gerber (RS-274-X) file*
G04 PC Version=2.1*
*
%IN "imu.pcb"*%
*
%MOIN*%
*
%FSLAX35Y35*%
*
*
*
*
G04 PC Standard Apertures*
*
*
G04 Thermal Relief Aperture macro.*
%AMTER*
1,1,$1,0,0*
1,0,$1-$2,0,0*
21,0,$3,$4,0,0,45*
21,0,$3,$4,0,0,135*
%
*
*
G04 Annular Aperture macro.*
%AMANN*
1,1,$1,0,0*
1,0,$2,0,0*
%
*
*
G04 Odd Aperture macro.*
%AMODD*
1,1,$1,0,0*
1,0,$1-0.005,0,0*
%
*
*
G04 PC Custom Aperture Macros*
*
*
*
*
*
*
G04 PC Aperture Table*
*
%ADD010C,0.00394*%
%ADD069C,0.07575*%
%ADD070R,0.03X0.03*%
%ADD073C,0.1163*%
%ADD075R,0.06X0.06*%
%ADD077C,0.06906*%
%ADD083R,0.076X0.076*%
%ADD084C,0.076*%
%ADD107R,0.07X0.03362*%
*
*
*
*
G04 PC Circuitry*
G04 Layer Name imu.pcb - circuitry*
%LPD*%
*
*
G04 PC Custom Flashes*
G04 Layer Name imu.pcb - flashes*
%LPD*%
*
*
G04 PC Circuitry*
G04 Layer Name imu.pcb - circuitry*
%LPD*%
*
G54D10*
G01X2023920Y1410459D02*
Y1570459D01*
G75*
G03X1988920Y1605459I-35000J0D01*
G01X1599667*
X1599682Y1605460D02*
G03X1574814Y1578226I1041J-25921D01*
G01Y1578224D02*
X1574919Y1410459D01*
X1574920Y1410466D02*
G03X1602073Y1375460I31079J-3926D01*
G01X1602080Y1375459D02*
X1988920D01*
G03X2023920Y1410459I-0J35000*
G01X1962792Y1525096D02*
G03X1962792I-5215J0D01*
G01X1962563Y1448048D02*
G03X1962563I-5094J0D01*
G54D69*
G01X1963651Y1585602D03*
Y1595602D03*
X1953651Y1585602D03*
Y1595602D03*
X1943651Y1585602D03*
Y1595602D03*
X1933651Y1585602D03*
Y1595602D03*
X1923651Y1585602D03*
Y1595602D03*
X1913651Y1585602D03*
Y1595602D03*
X1903651Y1585602D03*
Y1595602D03*
X1893651Y1585602D03*
Y1595602D03*
X1883651Y1585602D03*
Y1595602D03*
X1873651Y1585602D03*
Y1595602D03*
X1893652Y1395621D03*
Y1385621D03*
X1903652Y1395621D03*
Y1385621D03*
X1913652Y1395621D03*
Y1385621D03*
X1923652Y1395621D03*
Y1385621D03*
X1933652Y1395621D03*
Y1385621D03*
X1943652Y1395621D03*
Y1385621D03*
X1953652Y1395621D03*
Y1385621D03*
X1963652Y1395621D03*
Y1385621D03*
X1973652Y1395621D03*
Y1385621D03*
X1983652Y1395621D03*
Y1385621D03*
X1767663Y1585615D03*
Y1595615D03*
X1757663Y1585615D03*
Y1595615D03*
X1747663Y1585615D03*
Y1595615D03*
X1737663Y1585615D03*
Y1595615D03*
X1727663Y1585615D03*
Y1595615D03*
X1717663Y1585615D03*
Y1595615D03*
X1707663Y1585615D03*
Y1595615D03*
X1697663Y1585615D03*
Y1595615D03*
X1687663Y1585615D03*
Y1595615D03*
X1677663Y1585615D03*
Y1595615D03*
G54D70*
X1970155Y1474738D03*
X1974155D03*
X1970155Y1490643D03*
X1974155D03*
X1970155Y1482505D03*
X1974155D03*
X1970155Y1498231D03*
X1974155D03*
X1970155Y1506024D03*
X1974155D03*
X1970155Y1512893D03*
X1974155D03*
G54D73*
X1606617Y1462437D03*
Y1442358D03*
X1586538Y1462437D03*
Y1442358D03*
X1596328Y1452313D03*
X1606617Y1573200D03*
Y1553121D03*
X1586538Y1573200D03*
Y1553121D03*
X1596328Y1563076D03*
G54D75*
X1651365Y1447824D03*
X1642165D03*
X1651365Y1549996D03*
X1642165D03*
G54D77*
X1753544Y1407703D03*
X1744350D03*
X1723937D03*
X1733785D03*
X1952780Y1459022D03*
Y1466896D03*
Y1506266D03*
Y1514140D03*
X1961441Y1459022D03*
Y1466896D03*
Y1474770D03*
Y1482644D03*
Y1490518D03*
Y1498392D03*
Y1506266D03*
Y1514140D03*
G54D83*
X1853620Y1585591D03*
X1713664Y1395607D03*
X1803635Y1395606D03*
G54D84*
X1853620Y1595591D03*
X1843620Y1585591D03*
Y1595591D03*
X1833620Y1585591D03*
Y1595591D03*
X1823620Y1585591D03*
Y1595591D03*
X1813620Y1585591D03*
Y1595591D03*
X1803620Y1585591D03*
Y1595591D03*
X1793620Y1585591D03*
Y1595591D03*
X1783620Y1585591D03*
Y1595591D03*
X1713664Y1385607D03*
X1723664Y1395607D03*
Y1385607D03*
X1733664Y1395607D03*
Y1385607D03*
X1743664Y1395607D03*
Y1385607D03*
X1753664Y1395607D03*
Y1385607D03*
X1763664Y1395607D03*
Y1385607D03*
X1773664Y1395607D03*
Y1385607D03*
X1783664Y1395607D03*
Y1385607D03*
X1803635Y1385606D03*
X1813635Y1395606D03*
Y1385606D03*
X1823635Y1395606D03*
Y1385606D03*
X1833635Y1395606D03*
Y1385606D03*
X1843635Y1395606D03*
Y1385606D03*
X1853635Y1395606D03*
Y1385606D03*
X1863635Y1395606D03*
Y1385606D03*
X1873635Y1395606D03*
Y1385606D03*
G54D107*
X1687292Y1429404D03*
Y1440625D03*
G74*
X0Y0D02*
M02*
