*
*
G04 PADS 9.5 Build Number: 522968 generated Gerber (RS-274-X) file*
G04 PC Version=2.1*
*
%IN "imu.pcb"*%
*
%MOIN*%
*
%FSLAX35Y35*%
*
*
*
*
G04 PC Standard Apertures*
*
*
G04 Thermal Relief Aperture macro.*
%AMTER*
1,1,$1,0,0*
1,0,$1-$2,0,0*
21,0,$3,$4,0,0,45*
21,0,$3,$4,0,0,135*
%
*
*
G04 Annular Aperture macro.*
%AMANN*
1,1,$1,0,0*
1,0,$2,0,0*
%
*
*
G04 Odd Aperture macro.*
%AMODD*
1,1,$1,0,0*
1,0,$1-0.005,0,0*
%
*
*
G04 PC Custom Aperture Macros*
*
*
*
*
*
*
G04 PC Aperture Table*
*
%ADD010C,0.00394*%
%ADD014R,0.02X0.02*%
%ADD023R,0.05X0.05*%
%ADD065C,0.01*%
%ADD066R,0.06X0.02362*%
%ADD108C,0.001*%
*
*
*
*
G04 PC Circuitry*
G04 Layer Name imu.pcb - circuitry*
%LPD*%
*
*
G04 PC Custom Flashes*
G04 Layer Name imu.pcb - flashes*
%LPD*%
*
*
G04 PC Circuitry*
G04 Layer Name imu.pcb - circuitry*
%LPD*%
*
G54D10*
G01X2023920Y1410459D02*
Y1570459D01*
G75*
G03X1988920Y1605459I-35000J0D01*
G01X1599667*
X1599682Y1605460D02*
G03X1574814Y1578226I1041J-25921D01*
G01Y1578224D02*
X1574919Y1410459D01*
X1574920Y1410466D02*
G03X1602073Y1375460I31079J-3926D01*
G01X1602080Y1375459D02*
X1988920D01*
G03X2023920Y1410459I-0J35000*
G01X1962792Y1525096D02*
G03X1962792I-5215J0D01*
G01X1962563Y1448048D02*
G03X1962563I-5094J0D01*
G54D14*
G01X1970155Y1474738D03*
X1974155D03*
X1970155Y1490643D03*
X1974155D03*
X1970155Y1482505D03*
X1974155D03*
X1970155Y1498231D03*
X1974155D03*
X1970155Y1506024D03*
X1974155D03*
X1970155Y1512893D03*
X1974155D03*
G54D23*
X1651365Y1447824D03*
X1642165D03*
X1651365Y1549996D03*
X1642165D03*
G54D65*
X1574731Y1624859D02*
X1781181D01*
X1574731D02*
X1584731Y1627359D01*
Y1622359*
X1574731Y1624859*
X2024086D02*
X1817636D01*
X2024086D02*
X2014086Y1622359D01*
Y1627359*
X2024086Y1624859*
X1574731Y1566341D02*
Y1629859D01*
X2024086Y1534622D02*
Y1629859D01*
X1784181Y1626422D02*
X1784636Y1626734D01*
X1785318Y1627672*
Y1621109*
X1787363Y1626422D02*
X1787818Y1626734D01*
X1788500Y1627672*
Y1621109*
X1792818Y1627672D02*
X1790545Y1623297D01*
X1793954*
X1792818Y1627672D02*
Y1621109D01*
X1796227Y1621734D02*
X1796000Y1621422D01*
X1796227Y1621109*
X1796454Y1621422*
X1796227Y1621734*
X1798500Y1626422D02*
X1798954Y1626734D01*
X1799636Y1627672*
Y1621109*
X1801681Y1625484D02*
Y1621109D01*
Y1624234D02*
X1802363Y1625172D01*
X1802818Y1625484*
X1803500*
X1803954Y1625172*
X1804181Y1624234*
Y1621109*
Y1624234D02*
X1804863Y1625172D01*
X1805318Y1625484*
X1806000*
X1806454Y1625172*
X1806681Y1624234*
Y1621109*
X1808727Y1625484D02*
Y1621109D01*
Y1624234D02*
X1809409Y1625172D01*
X1809863Y1625484*
X1810545*
X1811000Y1625172*
X1811227Y1624234*
Y1621109*
Y1624234D02*
X1811909Y1625172D01*
X1812363Y1625484*
X1813045*
X1813500Y1625172*
X1813727Y1624234*
Y1621109*
X1555888Y1375617D02*
Y1483785D01*
Y1375617D02*
X1553388Y1385617D01*
X1558388*
X1555888Y1375617*
Y1605454D02*
Y1497285D01*
Y1605454D02*
X1558388Y1595454D01*
X1553388*
X1555888Y1605454*
X1628806Y1375617D02*
X1550888D01*
X1642152Y1605454D02*
X1550888D01*
X1543047Y1493348D02*
X1540774D01*
X1540547Y1490535*
X1540774Y1490848*
X1541456Y1491160*
X1542138*
X1542819Y1490848*
X1543274Y1490223*
X1543501Y1489285*
X1543274Y1488660*
X1543047Y1487723*
X1542592Y1487098*
X1541910Y1486785*
X1541229*
X1540547Y1487098*
X1540319Y1487410*
X1540092Y1488035*
X1546683Y1493348D02*
X1546001Y1493035D01*
X1545774Y1492410*
Y1491785*
X1546001Y1491160*
X1546456Y1490848*
X1547365Y1490535*
X1548047Y1490223*
X1548501Y1489598*
X1548729Y1488973*
Y1488035*
X1548501Y1487410*
X1548274Y1487098*
X1547592Y1486785*
X1546683*
X1546001Y1487098*
X1545774Y1487410*
X1545547Y1488035*
Y1488973*
X1545774Y1489598*
X1546229Y1490223*
X1546910Y1490535*
X1547819Y1490848*
X1548274Y1491160*
X1548501Y1491785*
Y1492410*
X1548274Y1493035*
X1547592Y1493348*
X1546683*
X1551001Y1487410D02*
X1550774Y1487098D01*
X1551001Y1486785*
X1551229Y1487098*
X1551001Y1487410*
X1555547Y1493348D02*
X1553274Y1488973D01*
X1556683*
X1555547Y1493348D02*
Y1486785D01*
X1558729Y1491160D02*
Y1486785D01*
Y1489910D02*
X1559410Y1490848D01*
X1559865Y1491160*
X1560547*
X1561001Y1490848*
X1561229Y1489910*
Y1486785*
Y1489910D02*
X1561910Y1490848D01*
X1562365Y1491160*
X1563047*
X1563501Y1490848*
X1563729Y1489910*
Y1486785*
X1565774Y1491160D02*
Y1486785D01*
Y1489910D02*
X1566456Y1490848D01*
X1566910Y1491160*
X1567592*
X1568047Y1490848*
X1568274Y1489910*
Y1486785*
Y1489910D02*
X1568956Y1490848D01*
X1569410Y1491160*
X1570092*
X1570547Y1490848*
X1570774Y1489910*
Y1486785*
G54D66*
X1687292Y1429404D03*
Y1440625D03*
G54D108*
X1574731Y1561341D02*
X1574734D01*
X2024086Y1529622D02*
X2024089D01*
X1633806Y1375617D02*
X1633809D01*
X1647152Y1605454D02*
X1647155D01*
G74*
X0Y0D02*
M02*
