*
*
G04 PADS 9.5 Build Number: 522968 generated Gerber (RS-274-X) file*
G04 PC Version=2.1*
*
%IN "imu.pcb"*%
*
%MOIN*%
*
%FSLAX35Y35*%
*
*
*
*
G04 PC Standard Apertures*
*
*
G04 Thermal Relief Aperture macro.*
%AMTER*
1,1,$1,0,0*
1,0,$1-$2,0,0*
21,0,$3,$4,0,0,45*
21,0,$3,$4,0,0,135*
%
*
*
G04 Annular Aperture macro.*
%AMANN*
1,1,$1,0,0*
1,0,$2,0,0*
%
*
*
G04 Odd Aperture macro.*
%AMODD*
1,1,$1,0,0*
1,0,$1-0.005,0,0*
%
*
*
G04 PC Custom Aperture Macros*
*
*
*
*
*
*
G04 PC Aperture Table*
*
%ADD010C,0.00394*%
%ADD053C,0.01181*%
%ADD065C,0.01*%
%ADD108C,0.001*%
%ADD110C,0.006*%
%ADD111C,0.005*%
*
*
*
*
G04 PC Circuitry*
G04 Layer Name imu.pcb - circuitry*
%LPD*%
*
G54D10*
G01X1878408Y1512203D02*
X1875226D01*
X1870586Y1498639*
X1869866Y1495762*
X1869675Y1495613*
X1869315*
X1869120Y1495782*
X1868762Y1498287*
X1863767Y1512203*
X1860586*
X1868007Y1493122*
X1871341*
X1878408Y1512203*
X1858296Y1502661D02*
X1857586Y1506562D01*
X1855819Y1509743*
X1853003Y1511855*
X1849479Y1512559*
X1845953Y1511854*
X1843495Y1510098*
X1841737Y1507286*
X1841381Y1503374*
Y1501777*
X1854889*
X1855084Y1501552*
X1854723Y1499028*
X1854692Y1498946*
X1854692D02*
X1853250Y1496783D01*
X1853187Y1496723*
X1851384Y1495641*
X1851310Y1495615*
X1848786Y1495254*
X1848736*
X1845491Y1495614*
X1845408Y1495643*
X1842824Y1497258*
Y1494837*
X1845577Y1493117*
X1849469Y1492763*
X1853012Y1493471*
X1855823Y1495229*
X1857585Y1498400*
X1857585D02*
X1858296Y1502661D01*
X1854889Y1504268D02*
X1844791D01*
X1844594Y1504465*
X1844597Y1504498*
X1844957Y1506662*
X1844969Y1506702*
X1845690Y1508505*
X1845755Y1508590*
X1847197Y1509672*
X1847283Y1509708*
X1849447Y1510069*
X1849518Y1510068*
X1851321Y1509707*
X1851384Y1509683*
X1853187Y1508601*
X1853255Y1508534*
X1854336Y1506730*
X1854354Y1506691*
X1855076Y1504528*
X1854889Y1504268*
X1836299Y1521579D02*
X1833087D01*
Y1509154*
X1832751Y1509014*
X1831318Y1510447*
X1829901Y1511510*
X1828501Y1512210*
X1826394Y1512561*
X1823605Y1512212*
X1821863Y1510471*
X1820458Y1508364*
X1820104Y1504816*
Y1493122*
X1823316*
Y1504105*
X1823318Y1504133*
X1823679Y1506657*
X1823691Y1506702*
X1824412Y1508505*
X1824477Y1508590*
X1825919Y1509672*
X1825999Y1509707*
X1827802Y1510068*
X1827879*
X1829683Y1509707*
X1829767Y1509668*
X1831570Y1508225*
X1831616Y1508173*
X1832698Y1506370*
X1832724Y1506296*
X1833085Y1503772*
X1833087Y1503744*
Y1493122*
X1836299*
Y1521579*
X1809396Y1450609D02*
X1805848Y1454158D01*
X1805835Y1454171*
X1805234Y1454893*
X1805199Y1454956*
X1804958Y1455678*
X1804952Y1455701*
X1804832Y1456302*
X1804828Y1456341*
X1804831Y1456373*
X1804951Y1457095*
X1804988Y1457180*
X1805348Y1457661*
X1805388Y1457701*
X1805869Y1458061*
X1805954Y1458098*
X1806676Y1458218*
X1806747Y1458217*
X1807949Y1457976*
X1808011Y1457952*
X1808612Y1457592*
X1808634Y1457577*
X1808915Y1457352*
Y1457809*
X1808399Y1458223*
X1807841Y1458557*
X1807156Y1458671*
X1807150Y1458672*
X1806578Y1458787*
X1805457Y1458675*
X1804679Y1458119*
X1804132Y1457462*
X1804021Y1456464*
X1804134Y1455673*
X1804475Y1454877*
X1805174Y1453946*
X1806244Y1452876*
X1808406Y1450834*
X1808271Y1450494*
X1804140*
Y1449926*
X1809396*
Y1450609*
X1812871Y1477294D02*
X1811970D01*
X1809494Y1470338*
X1809256Y1469503*
X1808872Y1469529*
X1808754Y1470351*
X1806283Y1477294*
X1805498*
X1808604Y1468552*
X1809650*
X1812871Y1477294*
X1814300Y1512203D02*
X1811087D01*
Y1493122*
X1814300*
Y1512203*
X1814638Y1519252D02*
X1813990Y1520547D01*
X1812694Y1521195*
X1811398Y1520547*
X1810750Y1519252*
X1811398Y1517956*
X1812694Y1517308*
X1813990Y1517956*
X1814638Y1519252*
X1802424Y1455235D02*
X1802190Y1456170D01*
X1801956Y1456990*
X1801617Y1457667*
X1801169Y1458115*
X1800720Y1458452*
X1800163Y1458675*
X1799495Y1458786*
X1798809Y1458672*
X1798270Y1458564*
X1797367Y1457661*
X1797040Y1457115*
X1796925Y1456313*
X1796921Y1456293*
X1796687Y1455355*
Y1453240*
X1796919Y1452309*
X1797153Y1451608*
X1797493Y1450928*
X1798390Y1450031*
X1798930Y1449923*
X1799615Y1449808*
X1800301Y1449923*
X1800855Y1450034*
X1801280Y1450352*
X1801727Y1450911*
X1801955Y1451480*
X1802191Y1452188*
X1802424Y1453119*
Y1455235*
X1801615Y1454177D02*
Y1454162D01*
X1801495Y1452599*
X1801487Y1452558*
X1801126Y1451356*
X1801077Y1451273*
X1800476Y1450672*
X1800391Y1450622*
X1799549Y1450381*
X1799433Y1450384*
X1798712Y1450624*
X1798623Y1450685*
X1798022Y1451406*
X1797986Y1451470*
X1797625Y1452552*
X1797616Y1452599*
X1797496Y1454162*
X1797495Y1454177*
X1797496Y1454191*
X1797616Y1455874*
X1797624Y1455917*
X1797984Y1457119*
X1798009Y1457171*
X1798490Y1457893*
X1798600Y1457973*
X1799441Y1458213*
X1799549*
X1800391Y1457973*
X1800488Y1457909*
X1801089Y1457188*
X1801126Y1457119*
X1801487Y1455917*
X1801495Y1455874*
X1801615Y1454191*
Y1454177*
X1804693Y1468552D02*
X1801357Y1477294D01*
X1800426*
X1797090Y1468552*
X1797994*
X1798906Y1470832*
X1799089Y1470956*
X1802815*
X1803001Y1470824*
X1803796Y1468552*
X1804693*
X1802455Y1471644D02*
X1799329D01*
X1799145Y1471910*
X1800575Y1475723*
Y1475928*
X1800585Y1475990*
X1800705Y1476351*
X1801075Y1476362*
X1801315Y1475761*
X1801318Y1475752*
X1802641Y1471905*
X1802455Y1471644*
X1794730Y1457877D02*
X1791878Y1458722D01*
Y1450691*
X1791681Y1450494*
X1789834*
Y1449926*
X1794730*
Y1450494*
X1792883*
X1792687Y1450691*
Y1457543*
X1792939Y1457732*
X1794730Y1457205*
Y1457877*
X1795406Y1476502D02*
X1792553Y1477348D01*
Y1469316*
X1792357Y1469120*
X1790510*
Y1468552*
X1795406*
Y1469120*
X1793559*
X1793362Y1469316*
Y1476169*
X1793614Y1476357*
X1795406Y1475831*
Y1476502*
X1805642Y1502303D02*
X1804933Y1506555D01*
X1802811Y1509738*
X1801404Y1510793*
X1799640Y1511852*
X1795740Y1512561*
X1793279Y1512209*
X1791252Y1511196*
Y1508751*
X1793131Y1509690*
X1793191Y1509709*
X1795716Y1510070*
X1795772*
X1798296Y1509709*
X1798394Y1509666*
X1800558Y1507862*
X1800596Y1507820*
X1802038Y1505656*
X1802070Y1505569*
X1802431Y1502323*
X1802432Y1502301*
X1802431Y1502277*
X1802070Y1499392*
X1802038Y1499307*
X1800596Y1497143*
X1800541Y1497089*
X1798377Y1495646*
X1798296Y1495615*
X1795772Y1495254*
X1795716*
X1793191Y1495615*
X1793110Y1495646*
X1791252Y1496885*
Y1494482*
X1793643Y1493115*
X1796459Y1492763*
X1800360Y1493472*
X1803170Y1495229*
X1804932Y1498402*
X1804932D02*
X1805642Y1502303D01*
X1788239Y1458669D02*
X1782622D01*
Y1458544*
X1786163Y1449926*
X1786935*
X1783566Y1457826*
X1783747Y1458101*
X1788239*
Y1458669*
X1788914Y1477294D02*
X1783297D01*
Y1477169*
X1786839Y1468552*
X1787611*
X1784241Y1476452*
X1784423Y1476726*
X1788914*
Y1477294*
X1781772Y1448363D02*
X1777604Y1458669D01*
X1776826*
X1780995Y1448363*
X1781772*
X1781821Y1473860D02*
X1781588Y1474795D01*
X1781353Y1475616*
X1781015Y1476292*
X1780567Y1476741*
X1780118Y1477077*
X1779561Y1477300*
X1778893Y1477412*
X1778207Y1477297*
X1777667Y1477189*
X1776765Y1476287*
X1776437Y1475741*
X1776323Y1474939*
X1776319Y1474919*
X1776084Y1473981*
Y1471865*
X1776317Y1470934*
X1776551Y1470233*
X1776891Y1469553*
X1777788Y1468656*
X1778327Y1468548*
X1779013Y1468434*
X1779699Y1468548*
X1780253Y1468659*
X1780678Y1468978*
X1781125Y1469537*
X1781352Y1470105*
X1781589Y1470814*
X1781821Y1471745*
Y1473860*
X1781013Y1472803D02*
X1781012Y1472788D01*
X1780892Y1471225*
X1780884Y1471183*
X1780524Y1469981*
X1780474Y1469898*
X1779873Y1469297*
X1779788Y1469247*
X1778947Y1469007*
X1778830Y1469009*
X1778109Y1469250*
X1778020Y1469311*
X1777419Y1470032*
X1777384Y1470096*
X1777023Y1471178*
X1777013Y1471225*
X1776893Y1472788*
Y1472803*
Y1472817*
X1777013Y1474500*
X1777021Y1474542*
X1777382Y1475744*
X1777407Y1475797*
X1777887Y1476518*
X1777997Y1476598*
X1778839Y1476839*
X1778947*
X1779788Y1476598*
X1779885Y1476535*
X1780486Y1475814*
X1780524Y1475744*
X1780884Y1474542*
X1780892Y1474500*
X1781012Y1472817*
X1781013Y1472803*
X1775376Y1457877D02*
X1772524Y1458722D01*
Y1450691*
X1772327Y1450494*
X1770480*
Y1449926*
X1775376*
Y1450494*
X1773529*
X1773332Y1450691*
Y1457543*
X1773584Y1457732*
X1775376Y1457205*
Y1457877*
X1774128Y1476502D02*
X1771276Y1477348D01*
Y1469316*
X1771079Y1469120*
X1769232*
Y1468552*
X1774128*
Y1469120*
X1772281*
X1772084Y1469316*
Y1476169*
X1772336Y1476357*
X1774128Y1475831*
Y1476502*
X1786891Y1512203D02*
X1783679D01*
Y1501220*
X1783677Y1501192*
X1783316Y1498667*
X1783304Y1498622*
X1782583Y1496819*
X1782518Y1496734*
X1781075Y1495652*
X1780990Y1495616*
X1778826Y1495255*
X1778761*
X1776597Y1495616*
X1776512Y1495652*
X1775069Y1496734*
X1775011Y1496804*
X1773929Y1498968*
X1773911Y1499023*
X1773550Y1501187*
X1773548Y1501220*
Y1512203*
X1770335*
Y1493122*
X1773548*
Y1496171*
X1773913Y1496272*
X1774975Y1494502*
X1776351Y1493470*
X1779884Y1492763*
X1783041Y1493114*
X1785132Y1494856*
X1786536Y1497314*
X1786891Y1500869*
Y1512203*
X1768764Y1450609D02*
X1765215Y1454158D01*
X1765203Y1454171*
X1764602Y1454893*
X1764567Y1454956*
X1764326Y1455678*
X1764320Y1455701*
X1764200Y1456302*
X1764196Y1456341*
X1764198Y1456373*
X1764319Y1457095*
X1764355Y1457180*
X1764716Y1457661*
X1764755Y1457701*
X1765236Y1458061*
X1765322Y1458098*
X1766043Y1458218*
X1766114Y1458217*
X1767316Y1457976*
X1767379Y1457952*
X1767980Y1457592*
X1768002Y1457577*
X1768283Y1457352*
Y1457809*
X1767766Y1458223*
X1767209Y1458557*
X1766524Y1458671*
X1766518Y1458672*
X1765946Y1458787*
X1764825Y1458675*
X1764047Y1458119*
X1763500Y1457462*
X1763389Y1456464*
X1763502Y1455673*
X1763843Y1454877*
X1764542Y1453946*
X1765612Y1452876*
X1767774Y1450834*
X1767638Y1450494*
X1763508*
Y1449926*
X1768764*
Y1450609*
X1762418Y1448363D02*
X1758249Y1458669D01*
X1757472*
X1761640Y1448363*
X1762418*
X1767515Y1472801D02*
X1767399Y1473728D01*
X1767165Y1474663*
X1766822Y1475464*
X1766251Y1476149*
X1765565Y1476720*
X1764762Y1477065*
X1763947Y1477298*
X1763947D02*
X1763022Y1477413D01*
X1761867Y1477298*
X1761057Y1476994*
Y1476321*
X1761057D02*
X1761880Y1476596D01*
X1761921Y1476605*
X1763003Y1476725*
X1763057Y1476723*
X1764499Y1476483*
X1764568Y1476458*
X1765169Y1476097*
X1765186Y1476086*
X1765667Y1475725*
X1765718Y1475669*
X1766439Y1474467*
X1766464Y1474398*
X1766585Y1473676*
Y1473672*
X1766706Y1472830*
X1766707Y1472803*
X1766705Y1472770*
X1766464Y1471328*
X1766434Y1471251*
X1765713Y1470169*
X1765667Y1470121*
X1764705Y1469399*
X1764660Y1469374*
X1764059Y1469134*
X1763986Y1469120*
X1763265*
X1763247*
X1761925Y1469241*
X1761863Y1469257*
X1761057Y1469615*
Y1468963*
X1761992Y1468548*
X1763381Y1468432*
X1764307Y1468548*
X1765117Y1468779*
X1765803Y1469123*
X1765803D02*
X1766364Y1469571D01*
X1766821Y1470257*
X1767168Y1470951*
X1767399Y1471759*
X1767515Y1472801*
X1763810Y1521579D02*
X1760598D01*
Y1493122*
X1763810*
Y1521579*
X1756502Y1450609D02*
X1752953Y1454158D01*
X1752941Y1454171*
X1752340Y1454893*
X1752305Y1454956*
X1752064Y1455678*
X1752058Y1455701*
X1751938Y1456302*
X1751934Y1456341*
X1751937Y1456373*
X1752057Y1457095*
X1752094Y1457180*
X1752454Y1457661*
X1752494Y1457701*
X1752974Y1458061*
X1753060Y1458098*
X1753781Y1458218*
X1753852Y1458217*
X1755055Y1457976*
X1755117Y1457952*
X1755718Y1457592*
X1755740Y1457577*
X1756021Y1457352*
Y1457809*
X1755504Y1458223*
X1754947Y1458557*
X1754262Y1458671*
X1754256Y1458672*
X1753684Y1458787*
X1752563Y1458675*
X1751785Y1458119*
X1751238Y1457462*
X1751127Y1456464*
X1751240Y1455673*
X1751581Y1454877*
X1752280Y1453946*
X1753350Y1452876*
X1755512Y1450834*
X1755377Y1450494*
X1751246*
Y1449926*
X1756502*
Y1450609*
X1758981Y1476502D02*
X1756129Y1477348D01*
Y1469316*
X1755932Y1469120*
X1754085*
Y1468552*
X1758981*
Y1469120*
X1757134*
X1756937Y1469316*
Y1476169*
X1757189Y1476357*
X1758981Y1475831*
Y1476502*
X1749890Y1452796D02*
X1746014Y1458669D01*
X1744874*
Y1452975*
X1744678Y1452778*
X1743672*
Y1452210*
X1744678*
X1744874Y1452013*
Y1449926*
X1745683*
Y1452013*
X1745880Y1452210*
X1749890*
Y1452796*
X1748885Y1452778D02*
X1745880D01*
X1745683Y1452975*
Y1457783*
X1746066Y1457846*
X1746178Y1457510*
X1746404Y1457171*
X1749050Y1453082*
X1748885Y1452778*
X1752489Y1473860D02*
X1752255Y1474795D01*
X1752021Y1475616*
X1751683Y1476292*
X1751234Y1476741*
X1750786Y1477077*
X1750228Y1477300*
X1749560Y1477412*
X1748875Y1477297*
X1748335Y1477189*
X1747433Y1476287*
X1747105Y1475741*
X1746990Y1474939*
X1746987Y1474919*
X1746752Y1473981*
Y1471865*
X1746985Y1470934*
X1747218Y1470233*
X1747558Y1469553*
X1748455Y1468656*
X1748995Y1468548*
X1749681Y1468434*
X1750366Y1468548*
X1750921Y1468659*
X1751346Y1468978*
X1751793Y1469537*
X1752020Y1470105*
X1752256Y1470814*
X1752489Y1471745*
Y1473860*
X1751681Y1472803D02*
X1751680Y1472788D01*
X1751560Y1471225*
X1751552Y1471183*
X1751192Y1469981*
X1751142Y1469898*
X1750541Y1469297*
X1750456Y1469247*
X1749615Y1469007*
X1749498Y1469009*
X1748777Y1469250*
X1748688Y1469311*
X1748087Y1470032*
X1748051Y1470096*
X1747691Y1471178*
X1747681Y1471225*
X1747561Y1472788*
X1747560Y1472803*
X1747561Y1472817*
X1747681Y1474500*
X1747689Y1474542*
X1748050Y1475744*
X1748074Y1475797*
X1748555Y1476518*
X1748665Y1476598*
X1749506Y1476839*
X1749615*
X1750456Y1476598*
X1750553Y1476535*
X1751154Y1475814*
X1751192Y1475744*
X1751552Y1474542*
X1751560Y1474500*
X1751680Y1472817*
X1751681Y1472803*
X1744675Y1477294D02*
X1740381D01*
Y1476606*
X1743670*
X1743867Y1476409*
Y1473524*
X1743670Y1473327*
X1740621*
Y1472639*
X1743670*
X1743867Y1472442*
Y1469437*
X1743670Y1469240*
X1740140*
Y1468552*
X1744675*
Y1477294*
X1755513Y1498332D02*
X1755164Y1500429D01*
X1754124Y1502162*
X1752022Y1503563*
X1749542Y1504272*
X1743787Y1504991*
X1743614Y1505187*
X1743617Y1505219*
X1743978Y1507383*
X1743996Y1507438*
X1744717Y1508881*
X1744784Y1508957*
X1745866Y1509678*
X1745936Y1509707*
X1747740Y1510068*
X1747821Y1510067*
X1751067Y1509346*
X1751128Y1509321*
X1753712Y1507706*
Y1510120*
X1750595Y1511852*
X1747050Y1512561*
X1744242Y1512210*
X1742156Y1510819*
X1740756Y1508369*
X1740402Y1505535*
Y1493122*
X1743614*
Y1496171*
X1743980Y1496272*
X1745042Y1494502*
X1746422Y1493467*
X1747821Y1493117*
X1749587Y1492764*
X1752039Y1493114*
X1753778Y1494157*
X1755164Y1495891*
X1755164D02*
X1755513Y1498332D01*
X1752303Y1498334D02*
X1752293Y1498272D01*
X1751932Y1497190*
X1751909Y1497143*
X1751188Y1496061*
X1751133Y1496007*
X1750051Y1495285*
X1749942Y1495252*
X1748860*
X1748828Y1495255*
X1746664Y1495616*
X1746578Y1495652*
X1745136Y1496734*
X1745085Y1496791*
X1744003Y1498594*
X1743978Y1498663*
X1743617Y1500827*
X1743614Y1500859*
Y1502662*
X1743844Y1502856*
X1748171Y1502135*
X1748178Y1502134*
X1749981Y1501773*
X1750030Y1501756*
X1751473Y1501035*
X1751571Y1500921*
X1751932Y1499839*
X1751936Y1499825*
X1752297Y1498382*
X1752303Y1498334*
X1734238Y1512203D02*
X1731025D01*
Y1508793*
X1730645Y1508720*
X1729939Y1510486*
X1728908Y1511516*
X1727514Y1512214*
X1726148Y1512555*
X1725133Y1512217*
X1724533Y1511917*
Y1509427*
X1726438Y1510062*
X1726539Y1510068*
X1728342Y1509707*
X1728443Y1509654*
X1729885Y1508211*
X1729935Y1508126*
X1730657Y1505601*
X1730662Y1505575*
X1731023Y1503051*
X1731025Y1503023*
Y1493122*
X1734238*
Y1512203*
X1721592Y1494728D02*
X1720944Y1496024D01*
X1719648Y1496672*
X1718352Y1496024*
X1717704Y1494728*
X1718352Y1493432*
X1719648Y1492784*
X1720944Y1493432*
X1721592Y1494728*
X1713318Y1498332D02*
X1712969Y1500429D01*
X1711929Y1502162*
X1709827Y1503563*
X1707347Y1504272*
X1701592Y1504991*
X1701419Y1505187*
X1701422Y1505219*
X1701783Y1507383*
X1701801Y1507438*
X1702522Y1508881*
X1702589Y1508957*
X1703671Y1509678*
X1703741Y1509707*
X1705545Y1510068*
X1705626Y1510067*
X1708872Y1509346*
X1708933Y1509321*
X1711517Y1507706*
Y1510120*
X1708400Y1511852*
X1704855Y1512561*
X1702047Y1512210*
X1699961Y1510819*
X1698561Y1508369*
X1698207Y1505535*
Y1493122*
X1701419*
Y1496171*
X1701785Y1496272*
X1702847Y1494502*
X1704227Y1493467*
X1705626Y1493117*
X1707392Y1492764*
X1709844Y1493114*
X1711582Y1494157*
X1712969Y1495891*
X1713318Y1498332*
X1710108Y1498334D02*
X1710098Y1498272D01*
X1709737Y1497190*
X1709714Y1497143*
X1708993Y1496061*
X1708938Y1496007*
X1707856Y1495285*
X1707747Y1495252*
X1706665*
X1706633Y1495255*
X1704469Y1495616*
X1704383Y1495652*
X1702941Y1496734*
X1702890Y1496791*
X1701808Y1498594*
X1701783Y1498663*
X1701422Y1500827*
X1701419Y1500859*
Y1502662*
X1701648Y1502856*
X1705976Y1502135*
X1705982Y1502134*
X1707786Y1501773*
X1707835Y1501756*
X1709278Y1501035*
X1709376Y1500921*
X1709737Y1499839*
X1709741Y1499825*
X1710102Y1498382*
X1710108Y1498334*
X1692403Y1512203D02*
X1689191D01*
Y1493122*
X1692403*
Y1512203*
X1692741Y1519252D02*
X1692093Y1520547D01*
X1690797Y1521195*
X1689501Y1520547*
X1688853Y1519252*
X1689501Y1517956*
X1690797Y1517308*
X1692093Y1517956*
X1692741Y1519252*
X1688976Y1519005D02*
Y1519498D01*
X1689370Y1493122D02*
Y1512203D01*
Y1518218D02*
Y1520286D01*
X1689764Y1493122D02*
Y1512203D01*
Y1517824D02*
Y1520679D01*
X1690157Y1493122D02*
Y1512203D01*
Y1517628D02*
Y1520876D01*
X1690551Y1493122D02*
Y1512203D01*
Y1517431D02*
Y1521073D01*
X1690945Y1493122D02*
Y1512203D01*
Y1517382D02*
Y1521121D01*
X1691339Y1493122D02*
Y1512203D01*
Y1517579D02*
Y1520925D01*
X1691732Y1493122D02*
Y1512203D01*
Y1517776D02*
Y1520728D01*
X1692126Y1493122D02*
Y1512203D01*
Y1518022D02*
Y1520481D01*
X1692520Y1518810D02*
Y1519694D01*
X1698425Y1493122D02*
Y1507284D01*
X1698819Y1493122D02*
Y1508821D01*
X1699213Y1493122D02*
Y1509510D01*
X1699606Y1493122D02*
Y1510199D01*
X1700000Y1493122D02*
Y1510845D01*
X1700394Y1493122D02*
Y1511107D01*
X1700787Y1493122D02*
Y1511370D01*
X1701181Y1493122D02*
Y1511632D01*
X1701575Y1496363D02*
Y1499909D01*
Y1502855D02*
Y1504994D01*
Y1506136D02*
Y1511895D01*
X1701969Y1495966D02*
Y1498326D01*
Y1502803D02*
Y1504944D01*
Y1507774D02*
Y1512157D01*
X1702362Y1495310D02*
Y1497670D01*
Y1502737D02*
Y1504895D01*
Y1508562D02*
Y1512249D01*
X1702756Y1494654D02*
Y1497014D01*
Y1502672D02*
Y1504846D01*
Y1509068D02*
Y1512298D01*
X1703150Y1494275D02*
Y1496578D01*
Y1502606D02*
Y1504797D01*
Y1509331D02*
Y1512348D01*
X1703543Y1493979D02*
Y1496282D01*
Y1502540D02*
Y1504747D01*
Y1509593D02*
Y1512397D01*
X1703937Y1493684D02*
Y1495987D01*
Y1502475D02*
Y1504698D01*
Y1509746D02*
Y1512446D01*
X1704331Y1493441D02*
Y1495692D01*
Y1502409D02*
Y1504649D01*
Y1509825D02*
Y1512495D01*
X1704724Y1493342D02*
Y1495573D01*
Y1502344D02*
Y1504600D01*
Y1509904D02*
Y1512545D01*
X1705118Y1493244D02*
Y1495508D01*
Y1502278D02*
Y1504550D01*
Y1509983D02*
Y1512508D01*
X1705512Y1493146D02*
Y1495442D01*
Y1502212D02*
Y1504501D01*
Y1510061D02*
Y1512429D01*
X1705906Y1493061D02*
Y1495376D01*
Y1502147D02*
Y1504452D01*
Y1510005D02*
Y1512351D01*
X1706299Y1492982D02*
Y1495311D01*
Y1502071D02*
Y1504403D01*
Y1509917D02*
Y1512272D01*
X1706693Y1492904D02*
Y1495252D01*
Y1501992D02*
Y1504354D01*
Y1509830D02*
Y1512193D01*
X1707087Y1492825D02*
Y1495252D01*
Y1501913D02*
Y1504304D01*
Y1509743D02*
Y1512114D01*
X1707480Y1492776D02*
Y1495252D01*
Y1501834D02*
Y1504234D01*
Y1509655D02*
Y1512036D01*
X1707874Y1492833D02*
Y1495297D01*
Y1501737D02*
Y1504121D01*
Y1509568D02*
Y1511957D01*
X1708268Y1492889D02*
Y1495560D01*
Y1501540D02*
Y1504009D01*
Y1509480D02*
Y1511878D01*
X1708661Y1492945D02*
Y1495822D01*
Y1501343D02*
Y1503896D01*
Y1509393D02*
Y1511706D01*
X1709055Y1493001D02*
Y1496155D01*
Y1501146D02*
Y1503784D01*
Y1509244D02*
Y1511488D01*
X1709449Y1493058D02*
Y1496745D01*
Y1500704D02*
Y1503671D01*
Y1508998D02*
Y1511269D01*
X1709843Y1493114D02*
Y1497507D01*
Y1499420D02*
Y1503553D01*
Y1508752D02*
Y1511050D01*
X1710236Y1493350D02*
Y1503291D01*
Y1508506D02*
Y1510831D01*
X1710630Y1493586D02*
Y1503028D01*
Y1508260D02*
Y1510613D01*
X1711024Y1493822D02*
Y1502766D01*
Y1508014D02*
Y1510394D01*
X1711417Y1494058D02*
Y1502503D01*
Y1507768D02*
Y1510175D01*
X1711811Y1494443D02*
Y1502241D01*
X1712205Y1494935D02*
Y1501702D01*
X1712598Y1495427D02*
Y1501046D01*
X1712992Y1496050D02*
Y1500288D01*
X1717717Y1494704D02*
Y1494752D01*
X1718110Y1493916D02*
Y1495540D01*
X1718504Y1493356D02*
Y1496100D01*
X1718898Y1493160D02*
Y1496296D01*
X1719291Y1492963D02*
Y1496493D01*
X1719685Y1492803D02*
Y1496653D01*
X1720079Y1492999D02*
Y1496456D01*
X1720472Y1493196D02*
Y1496260D01*
X1720866Y1493393D02*
Y1496063D01*
X1721260Y1494064D02*
Y1495392D01*
X1724803Y1509517D02*
Y1512052D01*
X1725197Y1509648D02*
Y1512238D01*
X1725591Y1509779D02*
Y1512370D01*
X1725984Y1509910D02*
Y1512501D01*
X1726378Y1510042D02*
Y1512498D01*
X1726772Y1510021D02*
Y1512399D01*
X1727165Y1509943D02*
Y1512301D01*
X1727559Y1509864D02*
Y1512191D01*
X1727953Y1509785D02*
Y1511994D01*
X1728346Y1509706D02*
Y1511797D01*
X1728740Y1509356D02*
Y1511600D01*
X1729134Y1508962D02*
Y1511291D01*
X1729528Y1508569D02*
Y1510897D01*
X1729921Y1508162D02*
Y1510503D01*
X1730315Y1506798D02*
Y1509546D01*
X1730709Y1505251D02*
Y1508637D01*
X1731102Y1493122D02*
Y1512203D01*
X1731496Y1493122D02*
Y1512203D01*
X1731890Y1493122D02*
Y1512203D01*
X1732283Y1493122D02*
Y1512203D01*
X1732677Y1493122D02*
Y1512203D01*
X1733071Y1493122D02*
Y1512203D01*
X1733465Y1493122D02*
Y1512203D01*
X1733858Y1493122D02*
Y1512203D01*
X1740157Y1468552D02*
Y1469240D01*
X1740551Y1468552D02*
Y1469240D01*
Y1476606D02*
Y1477294D01*
Y1493122D02*
Y1506731D01*
X1740945Y1468552D02*
Y1469240D01*
Y1472639D02*
Y1473327D01*
Y1476606D02*
Y1477294D01*
Y1493122D02*
Y1508700D01*
X1741339Y1468552D02*
Y1469240D01*
Y1472639D02*
Y1473327D01*
Y1476606D02*
Y1477294D01*
Y1493122D02*
Y1509389D01*
X1741732Y1468552D02*
Y1469240D01*
Y1472639D02*
Y1473327D01*
Y1476606D02*
Y1477294D01*
Y1493122D02*
Y1510078D01*
X1742126Y1468552D02*
Y1469240D01*
Y1472639D02*
Y1473327D01*
Y1476606D02*
Y1477294D01*
Y1493122D02*
Y1510767D01*
X1742520Y1468552D02*
Y1469240D01*
Y1472639D02*
Y1473327D01*
Y1476606D02*
Y1477294D01*
Y1493122D02*
Y1511061D01*
X1742913Y1468552D02*
Y1469240D01*
Y1472639D02*
Y1473327D01*
Y1476606D02*
Y1477294D01*
Y1493122D02*
Y1511324D01*
X1743307Y1468552D02*
Y1469240D01*
Y1472639D02*
Y1473327D01*
Y1476606D02*
Y1477294D01*
Y1493122D02*
Y1511586D01*
X1743701Y1452210D02*
Y1452778D01*
Y1468552D02*
Y1469242D01*
Y1472636D02*
Y1473329D01*
Y1476603D02*
Y1477294D01*
Y1496334D02*
Y1500324D01*
Y1502825D02*
Y1505024D01*
Y1505721D02*
Y1511849D01*
X1744094Y1452210D02*
Y1452778D01*
Y1468552D02*
Y1477294D01*
Y1496081D02*
Y1498441D01*
Y1502814D02*
Y1504953D01*
Y1507636D02*
Y1512111D01*
X1744488Y1452210D02*
Y1452778D01*
Y1468552D02*
Y1477294D01*
Y1495425D02*
Y1497785D01*
Y1502749D02*
Y1504904D01*
Y1508423D02*
Y1512241D01*
X1744882Y1449926D02*
Y1458669D01*
Y1494769D02*
Y1497129D01*
Y1502683D02*
Y1504854D01*
Y1509022D02*
Y1512290D01*
X1745276Y1449926D02*
Y1458669D01*
Y1494327D02*
Y1496629D01*
Y1502618D02*
Y1504805D01*
Y1509285D02*
Y1512339D01*
X1745669Y1449926D02*
Y1458669D01*
Y1494031D02*
Y1496334D01*
Y1502552D02*
Y1504756D01*
Y1509547D02*
Y1512388D01*
X1746063Y1452210D02*
Y1452778D01*
Y1457855D02*
Y1458595D01*
Y1493736D02*
Y1496039D01*
Y1502486D02*
Y1504707D01*
Y1509733D02*
Y1512437D01*
X1746457Y1452210D02*
Y1452778D01*
Y1457090D02*
Y1457998D01*
Y1493458D02*
Y1495744D01*
Y1502421D02*
Y1504658D01*
Y1509811D02*
Y1512487D01*
X1746850Y1452210D02*
Y1452778D01*
Y1456482D02*
Y1457402D01*
Y1471471D02*
Y1474374D01*
Y1493360D02*
Y1495585D01*
Y1502355D02*
Y1504608D01*
Y1509890D02*
Y1512536D01*
X1747244Y1452210D02*
Y1452778D01*
Y1455873D02*
Y1456805D01*
Y1470182D02*
Y1475973D01*
Y1493261D02*
Y1495519D01*
Y1502290D02*
Y1504559D01*
Y1509969D02*
Y1512522D01*
X1747638Y1452210D02*
Y1452778D01*
Y1455265D02*
Y1456209D01*
Y1469474D02*
Y1471789D01*
Y1473893D02*
Y1476492D01*
Y1493163D02*
Y1495453D01*
Y1502224D02*
Y1504510D01*
Y1510048D02*
Y1512443D01*
X1748031Y1452210D02*
Y1452778D01*
Y1454656D02*
Y1455612D01*
Y1469080D02*
Y1470155D01*
Y1475684D02*
Y1476886D01*
Y1493075D02*
Y1495388D01*
Y1502158D02*
Y1504461D01*
Y1510020D02*
Y1512364D01*
X1748425Y1452210D02*
Y1452778D01*
Y1454048D02*
Y1455016D01*
Y1468686D02*
Y1469626D01*
Y1476323D02*
Y1477207D01*
Y1492996D02*
Y1495322D01*
Y1502084D02*
Y1504411D01*
Y1509933D02*
Y1512286D01*
X1748819Y1452210D02*
Y1452778D01*
Y1453439D02*
Y1454419D01*
Y1468584D02*
Y1469236D01*
Y1476642D02*
Y1477286D01*
Y1492917D02*
Y1495257D01*
Y1502006D02*
Y1504362D01*
Y1509845D02*
Y1512207D01*
X1749213Y1452210D02*
Y1453822D01*
Y1468512D02*
Y1469105D01*
Y1476755D02*
Y1477354D01*
Y1492839D02*
Y1495252D01*
Y1501927D02*
Y1504313D01*
Y1509758D02*
Y1512128D01*
X1749606Y1452210D02*
Y1453226D01*
Y1468446D02*
Y1469005D01*
Y1476841D02*
Y1477404D01*
Y1492767D02*
Y1495252D01*
Y1501848D02*
Y1504254D01*
Y1509670D02*
Y1512049D01*
X1750000Y1468487D02*
Y1469117D01*
Y1476729D02*
Y1477338D01*
Y1492823D02*
Y1495261D01*
Y1501768D02*
Y1504141D01*
Y1509583D02*
Y1511971D01*
X1750394Y1468554D02*
Y1469230D01*
Y1476616D02*
Y1477234D01*
Y1492879D02*
Y1495514D01*
Y1501574D02*
Y1504029D01*
Y1509495D02*
Y1511892D01*
X1750787Y1468633D02*
Y1469544D01*
Y1476254D02*
Y1477076D01*
Y1492935D02*
Y1495776D01*
Y1501378D02*
Y1503916D01*
Y1509408D02*
Y1511745D01*
X1751181Y1456086D02*
Y1456950D01*
Y1468855D02*
Y1469954D01*
Y1475772D02*
Y1476781D01*
Y1492991D02*
Y1496052D01*
Y1501181D02*
Y1503804D01*
Y1509288D02*
Y1511526D01*
X1751575Y1449926D02*
Y1450494D01*
Y1454892D02*
Y1457867D01*
Y1469264D02*
Y1471418D01*
Y1474293D02*
Y1476400D01*
Y1493048D02*
Y1496642D01*
Y1500911D02*
Y1503691D01*
Y1509042D02*
Y1511307D01*
X1751969Y1449926D02*
Y1450494D01*
Y1454361D02*
Y1456149D01*
Y1456564D02*
Y1458250D01*
Y1469976D02*
Y1475721D01*
Y1493104D02*
Y1497299D01*
Y1499696D02*
Y1503579D01*
Y1508796D02*
Y1511089D01*
X1752362Y1449926D02*
Y1450494D01*
Y1453863D02*
Y1454866D01*
Y1457538D02*
Y1458531D01*
Y1471237D02*
Y1474368D01*
Y1493308D02*
Y1503337D01*
Y1508549D02*
Y1510870D01*
X1752756Y1449926D02*
Y1450494D01*
Y1453470D02*
Y1454394D01*
Y1457897D02*
Y1458694D01*
Y1493544D02*
Y1503074D01*
Y1508303D02*
Y1510651D01*
X1753150Y1449926D02*
Y1450494D01*
Y1453076D02*
Y1453962D01*
Y1458113D02*
Y1458733D01*
Y1493781D02*
Y1502812D01*
Y1508057D02*
Y1510432D01*
X1753543Y1449926D02*
Y1450494D01*
Y1452693D02*
Y1453568D01*
Y1458178D02*
Y1458773D01*
Y1494017D02*
Y1502549D01*
Y1507811D02*
Y1510214D01*
X1753937Y1449926D02*
Y1450494D01*
Y1452321D02*
Y1453174D01*
Y1458200D02*
Y1458736D01*
Y1494357D02*
Y1502287D01*
X1754331Y1449926D02*
Y1450494D01*
Y1451949D02*
Y1452781D01*
Y1458121D02*
Y1458660D01*
Y1468552D02*
Y1469120D01*
Y1494849D02*
Y1501817D01*
X1754724Y1449926D02*
Y1450494D01*
Y1451578D02*
Y1452387D01*
Y1458043D02*
Y1458594D01*
Y1468552D02*
Y1469120D01*
Y1495341D02*
Y1501161D01*
X1755118Y1449926D02*
Y1450494D01*
Y1451206D02*
Y1451993D01*
Y1457952D02*
Y1458454D01*
Y1468552D02*
Y1469120D01*
Y1495833D02*
Y1500505D01*
X1755512Y1449926D02*
Y1450548D01*
Y1450834D02*
Y1451600D01*
Y1457716D02*
Y1458217D01*
Y1468552D02*
Y1469120D01*
Y1498322D02*
Y1498341D01*
X1755906Y1449926D02*
Y1451206D01*
Y1457444D02*
Y1457902D01*
Y1468552D02*
Y1469120D01*
X1756299Y1449926D02*
Y1450812D01*
Y1468552D02*
Y1477297D01*
X1756693Y1468552D02*
Y1477180D01*
X1757087Y1468552D02*
Y1469125D01*
Y1476360D02*
Y1477064D01*
X1757480Y1458647D02*
Y1458669D01*
Y1468552D02*
Y1469120D01*
Y1476272D02*
Y1476947D01*
X1757874Y1457674D02*
Y1458669D01*
Y1468552D02*
Y1469120D01*
Y1476156D02*
Y1476830D01*
X1758268Y1456701D02*
Y1458623D01*
Y1468552D02*
Y1469120D01*
Y1476040D02*
Y1476714D01*
X1758661Y1455728D02*
Y1457650D01*
Y1468552D02*
Y1469120D01*
Y1475925D02*
Y1476597D01*
X1759055Y1454754D02*
Y1456676D01*
X1759449Y1453781D02*
Y1455703D01*
X1759843Y1452808D02*
Y1454730D01*
X1760236Y1451834D02*
Y1453756D01*
X1760630Y1450861D02*
Y1452783D01*
Y1493122D02*
Y1521579D01*
X1761024Y1449888D02*
Y1451810D01*
Y1493122D02*
Y1521579D01*
X1761417Y1448914D02*
Y1450836D01*
Y1468804D02*
Y1469455D01*
Y1476441D02*
Y1477129D01*
Y1493122D02*
Y1521579D01*
X1761811Y1448363D02*
Y1449863D01*
Y1468629D02*
Y1469280D01*
Y1476573D02*
Y1477276D01*
Y1493122D02*
Y1521579D01*
X1762205Y1448363D02*
Y1448890D01*
Y1468530D02*
Y1469215D01*
Y1476636D02*
Y1477331D01*
Y1493122D02*
Y1521579D01*
X1762598Y1468498D02*
Y1469179D01*
Y1476680D02*
Y1477371D01*
Y1493122D02*
Y1521579D01*
X1762992Y1468465D02*
Y1469144D01*
Y1476724D02*
Y1477410D01*
Y1493122D02*
Y1521579D01*
X1763386Y1468433D02*
Y1469120D01*
Y1476669D02*
Y1477368D01*
Y1493122D02*
Y1521579D01*
X1763780Y1449926D02*
Y1450494D01*
Y1455025D02*
Y1457798D01*
Y1468482D02*
Y1469120D01*
Y1476603D02*
Y1477318D01*
Y1493122D02*
Y1521579D01*
X1764173Y1449926D02*
Y1450494D01*
Y1454437D02*
Y1458209D01*
Y1468531D02*
Y1469179D01*
Y1476537D02*
Y1477233D01*
X1764567Y1449926D02*
Y1450494D01*
Y1453921D02*
Y1454955D01*
Y1457462D02*
Y1458490D01*
Y1468622D02*
Y1469337D01*
Y1476458D02*
Y1477120D01*
X1764961Y1449926D02*
Y1450494D01*
Y1453527D02*
Y1454462D01*
Y1457854D02*
Y1458688D01*
Y1468735D02*
Y1469591D01*
Y1476222D02*
Y1476979D01*
X1765354Y1449926D02*
Y1450494D01*
Y1453133D02*
Y1454019D01*
Y1458103D02*
Y1458728D01*
Y1468898D02*
Y1469886D01*
Y1475960D02*
Y1476811D01*
X1765748Y1449926D02*
Y1450494D01*
Y1452747D02*
Y1453625D01*
Y1458169D02*
Y1458767D01*
Y1469095D02*
Y1470222D01*
Y1475618D02*
Y1476568D01*
X1766142Y1449926D02*
Y1450494D01*
Y1452375D02*
Y1453232D01*
Y1458211D02*
Y1458748D01*
Y1469394D02*
Y1470812D01*
Y1474962D02*
Y1476240D01*
X1766535Y1449926D02*
Y1450494D01*
Y1452003D02*
Y1452838D01*
Y1458133D02*
Y1458669D01*
Y1469829D02*
Y1471754D01*
Y1473971D02*
Y1475807D01*
X1766929Y1449926D02*
Y1450494D01*
Y1451631D02*
Y1452444D01*
Y1458054D02*
Y1458604D01*
Y1470473D02*
Y1475213D01*
X1767323Y1449926D02*
Y1450494D01*
Y1451260D02*
Y1452050D01*
Y1457975D02*
Y1458489D01*
Y1471493D02*
Y1474032D01*
X1767717Y1449926D02*
Y1450510D01*
Y1450888D02*
Y1451657D01*
Y1457750D02*
Y1458252D01*
X1768110Y1449926D02*
Y1451263D01*
Y1457490D02*
Y1457947D01*
X1768504Y1449926D02*
Y1450869D01*
X1769291Y1468552D02*
Y1469120D01*
X1769685Y1468552D02*
Y1469120D01*
X1770079Y1468552D02*
Y1469120D01*
X1770472Y1468552D02*
Y1469120D01*
Y1493122D02*
Y1512203D01*
X1770866Y1449926D02*
Y1450494D01*
Y1468552D02*
Y1469120D01*
Y1493122D02*
Y1512203D01*
X1771260Y1449926D02*
Y1450494D01*
Y1468552D02*
Y1469239D01*
Y1493122D02*
Y1512203D01*
X1771654Y1449926D02*
Y1450494D01*
Y1468552D02*
Y1477236D01*
Y1493122D02*
Y1512203D01*
X1772047Y1449926D02*
Y1450494D01*
Y1468552D02*
Y1477119D01*
Y1493122D02*
Y1512203D01*
X1772441Y1449926D02*
Y1450530D01*
Y1468552D02*
Y1469120D01*
Y1476327D02*
Y1477002D01*
Y1493122D02*
Y1512203D01*
X1772835Y1449926D02*
Y1458630D01*
Y1468552D02*
Y1469120D01*
Y1476211D02*
Y1476886D01*
Y1493122D02*
Y1512203D01*
X1773228Y1449926D02*
Y1458513D01*
Y1468552D02*
Y1469120D01*
Y1476095D02*
Y1476769D01*
Y1493122D02*
Y1512203D01*
X1773622Y1449926D02*
Y1450494D01*
Y1457721D02*
Y1458397D01*
Y1468552D02*
Y1469120D01*
Y1475979D02*
Y1476652D01*
Y1496325D02*
Y1500757D01*
X1774016Y1449926D02*
Y1450494D01*
Y1457605D02*
Y1458280D01*
Y1468552D02*
Y1469120D01*
Y1475864D02*
Y1476536D01*
Y1496101D02*
Y1498794D01*
X1774409Y1449926D02*
Y1450494D01*
Y1457489D02*
Y1458163D01*
Y1495445D02*
Y1498007D01*
X1774803Y1449926D02*
Y1450494D01*
Y1457373D02*
Y1458047D01*
Y1494789D02*
Y1497220D01*
X1775197Y1449926D02*
Y1450494D01*
Y1457258D02*
Y1457930D01*
Y1494336D02*
Y1496638D01*
X1775591Y1494040D02*
Y1496343D01*
X1775984Y1493745D02*
Y1496048D01*
X1776378Y1470751D02*
Y1475326D01*
Y1493464D02*
Y1495753D01*
X1776772Y1469791D02*
Y1476294D01*
Y1493386D02*
Y1495587D01*
X1777165Y1457830D02*
Y1458669D01*
Y1469278D02*
Y1470750D01*
Y1475023D02*
Y1476687D01*
Y1493307D02*
Y1495521D01*
X1777559Y1456857D02*
Y1458669D01*
Y1468885D02*
Y1469864D01*
Y1476026D02*
Y1477081D01*
Y1493228D02*
Y1495455D01*
X1777953Y1455884D02*
Y1457806D01*
Y1468623D02*
Y1469391D01*
Y1476579D02*
Y1477246D01*
Y1493149D02*
Y1495390D01*
X1778346Y1454910D02*
Y1456832D01*
Y1468545D02*
Y1469171D01*
Y1476698D02*
Y1477321D01*
Y1493071D02*
Y1495324D01*
X1778740Y1453937D02*
Y1455859D01*
Y1468479D02*
Y1469040D01*
Y1476811D02*
Y1477386D01*
Y1492992D02*
Y1495259D01*
X1779134Y1452964D02*
Y1454886D01*
Y1468454D02*
Y1469060D01*
Y1476785D02*
Y1477371D01*
Y1492913D02*
Y1495306D01*
X1779528Y1451990D02*
Y1453912D01*
Y1468520D02*
Y1469173D01*
Y1476673D02*
Y1477306D01*
Y1492834D02*
Y1495372D01*
X1779921Y1451017D02*
Y1452939D01*
Y1468593D02*
Y1469345D01*
Y1476492D02*
Y1477156D01*
Y1492767D02*
Y1495438D01*
X1780315Y1450044D02*
Y1451966D01*
Y1468706D02*
Y1469739D01*
Y1476020D02*
Y1476930D01*
Y1492811D02*
Y1495503D01*
X1780709Y1449070D02*
Y1450992D01*
Y1469016D02*
Y1470597D01*
Y1475128D02*
Y1476599D01*
Y1492855D02*
Y1495569D01*
X1781102Y1448363D02*
Y1450019D01*
Y1469508D02*
Y1476118D01*
Y1492899D02*
Y1495673D01*
X1781496Y1448363D02*
Y1449046D01*
Y1470536D02*
Y1475116D01*
Y1492942D02*
Y1495968D01*
X1781890Y1492986D02*
Y1496263D01*
X1782283Y1493030D02*
Y1496558D01*
X1782677Y1458408D02*
Y1458669D01*
Y1493074D02*
Y1497055D01*
X1783071Y1457450D02*
Y1458669D01*
Y1493139D02*
Y1498039D01*
X1783465Y1456492D02*
Y1458669D01*
Y1476761D02*
Y1477294D01*
Y1493467D02*
Y1499707D01*
X1783858Y1455534D02*
Y1457141D01*
Y1458101D02*
Y1458669D01*
Y1475803D02*
Y1477294D01*
Y1493795D02*
Y1512203D01*
X1784252Y1454576D02*
Y1456218D01*
Y1458101D02*
Y1458669D01*
Y1474845D02*
Y1476427D01*
Y1476628D02*
Y1477294D01*
Y1494123D02*
Y1512203D01*
X1784646Y1453618D02*
Y1455295D01*
Y1458101D02*
Y1458669D01*
Y1473887D02*
Y1475504D01*
Y1476726D02*
Y1477294D01*
Y1494451D02*
Y1512203D01*
X1785039Y1452660D02*
Y1454372D01*
Y1458101D02*
Y1458669D01*
Y1472929D02*
Y1474581D01*
Y1476726D02*
Y1477294D01*
Y1494779D02*
Y1512203D01*
X1785433Y1451702D02*
Y1453449D01*
Y1458101D02*
Y1458669D01*
Y1471971D02*
Y1473658D01*
Y1476726D02*
Y1477294D01*
Y1495384D02*
Y1512203D01*
X1785827Y1450744D02*
Y1452525D01*
Y1458101D02*
Y1458669D01*
Y1471013D02*
Y1472735D01*
Y1476726D02*
Y1477294D01*
Y1496073D02*
Y1512203D01*
X1786220Y1449926D02*
Y1451602D01*
Y1458101D02*
Y1458669D01*
Y1470055D02*
Y1471812D01*
Y1476726D02*
Y1477294D01*
Y1496762D02*
Y1512203D01*
X1786614Y1449926D02*
Y1450679D01*
Y1458101D02*
Y1458669D01*
Y1469097D02*
Y1470888D01*
Y1476726D02*
Y1477294D01*
Y1498096D02*
Y1512203D01*
X1787008Y1458101D02*
Y1458669D01*
Y1468552D02*
Y1469965D01*
Y1476726D02*
Y1477294D01*
X1787402Y1458101D02*
Y1458669D01*
Y1468552D02*
Y1469042D01*
Y1476726D02*
Y1477294D01*
X1787795Y1458101D02*
Y1458669D01*
Y1476726D02*
Y1477294D01*
X1788189Y1458101D02*
Y1458669D01*
Y1476726D02*
Y1477294D01*
X1788583Y1476726D02*
Y1477294D01*
X1790157Y1449926D02*
Y1450494D01*
X1790551Y1449926D02*
Y1450494D01*
Y1468552D02*
Y1469120D01*
X1790945Y1449926D02*
Y1450494D01*
Y1468552D02*
Y1469120D01*
X1791339Y1449926D02*
Y1450494D01*
Y1468552D02*
Y1469120D01*
Y1494432D02*
Y1496827D01*
Y1508794D02*
Y1511239D01*
X1791732Y1449926D02*
Y1450501D01*
Y1468552D02*
Y1469120D01*
Y1494207D02*
Y1496565D01*
Y1508991D02*
Y1511436D01*
X1792126Y1449926D02*
Y1458649D01*
Y1468552D02*
Y1469120D01*
Y1493982D02*
Y1496302D01*
Y1509188D02*
Y1511633D01*
X1792520Y1449926D02*
Y1458532D01*
Y1468552D02*
Y1469206D01*
Y1493757D02*
Y1496040D01*
Y1509385D02*
Y1511830D01*
X1792913Y1449926D02*
Y1450494D01*
Y1457738D02*
Y1458415D01*
Y1468552D02*
Y1477241D01*
Y1493532D02*
Y1495777D01*
Y1509582D02*
Y1512026D01*
X1793307Y1449926D02*
Y1450494D01*
Y1457624D02*
Y1458299D01*
Y1468552D02*
Y1477124D01*
Y1493307D02*
Y1495599D01*
Y1509726D02*
Y1512213D01*
X1793701Y1449926D02*
Y1450494D01*
Y1457508D02*
Y1458182D01*
Y1468552D02*
Y1469120D01*
Y1476332D02*
Y1477008D01*
Y1493108D02*
Y1495542D01*
Y1509782D02*
Y1512269D01*
X1794094Y1449926D02*
Y1450494D01*
Y1457392D02*
Y1458065D01*
Y1468552D02*
Y1469120D01*
Y1476216D02*
Y1476891D01*
Y1493059D02*
Y1495486D01*
Y1509838D02*
Y1512326D01*
X1794488Y1449926D02*
Y1450494D01*
Y1457276D02*
Y1457949D01*
Y1468552D02*
Y1469120D01*
Y1476100D02*
Y1476774D01*
Y1493010D02*
Y1495430D01*
Y1509894D02*
Y1512382D01*
X1794882Y1468552D02*
Y1469120D01*
Y1475985D02*
Y1476658D01*
Y1492960D02*
Y1495374D01*
Y1509951D02*
Y1512438D01*
X1795276Y1468552D02*
Y1469120D01*
Y1475869D02*
Y1476541D01*
Y1492911D02*
Y1495317D01*
Y1510007D02*
Y1512494D01*
X1795669Y1492862D02*
Y1495261D01*
Y1510063D02*
Y1512551D01*
X1796063Y1492813D02*
Y1495296D01*
Y1510028D02*
Y1512502D01*
X1796457Y1492764D02*
Y1495352D01*
Y1509972D02*
Y1512430D01*
X1796850Y1452585D02*
Y1456010D01*
Y1492834D02*
Y1495409D01*
Y1509916D02*
Y1512359D01*
X1797244Y1451426D02*
Y1457456D01*
Y1468552D02*
Y1468954D01*
Y1492906D02*
Y1495465D01*
Y1509859D02*
Y1512287D01*
X1797638Y1450783D02*
Y1452515D01*
Y1455964D02*
Y1457932D01*
Y1468552D02*
Y1469986D01*
Y1492977D02*
Y1495521D01*
Y1509803D02*
Y1512216D01*
X1798031Y1450389D02*
Y1451394D01*
Y1457205D02*
Y1458325D01*
Y1468646D02*
Y1471018D01*
Y1493049D02*
Y1495577D01*
Y1509747D02*
Y1512144D01*
X1798425Y1450024D02*
Y1450922D01*
Y1457796D02*
Y1458595D01*
Y1469630D02*
Y1472050D01*
Y1493121D02*
Y1495678D01*
Y1509640D02*
Y1512072D01*
X1798819Y1449945D02*
Y1450589D01*
Y1458035D02*
Y1458673D01*
Y1470615D02*
Y1473081D01*
Y1493192D02*
Y1495940D01*
Y1509312D02*
Y1512001D01*
X1799213Y1449876D02*
Y1450457D01*
Y1458148D02*
Y1458739D01*
Y1470956D02*
Y1471682D01*
Y1472091D02*
Y1474113D01*
Y1493264D02*
Y1496203D01*
Y1508984D02*
Y1511929D01*
X1799606Y1449810D02*
Y1450398D01*
Y1458197D02*
Y1458768D01*
Y1470956D02*
Y1471644D01*
Y1473141D02*
Y1475145D01*
Y1493335D02*
Y1496465D01*
Y1508655D02*
Y1511858D01*
X1800000Y1449873D02*
Y1450510D01*
Y1458084D02*
Y1458702D01*
Y1470956D02*
Y1471644D01*
Y1474191D02*
Y1476177D01*
Y1493407D02*
Y1496728D01*
Y1508327D02*
Y1511636D01*
X1800394Y1449941D02*
Y1450623D01*
Y1457972D02*
Y1458582D01*
Y1470956D02*
Y1471644D01*
Y1475241D02*
Y1477209D01*
Y1493494D02*
Y1496990D01*
Y1507999D02*
Y1511399D01*
X1800787Y1450020D02*
Y1450983D01*
Y1457550D02*
Y1458401D01*
Y1470956D02*
Y1471644D01*
Y1476456D02*
Y1477294D01*
Y1493740D02*
Y1497431D01*
Y1507533D02*
Y1511163D01*
X1801181Y1450278D02*
Y1451538D01*
Y1456936D02*
Y1458103D01*
Y1470956D02*
Y1471644D01*
Y1476096D02*
Y1477294D01*
Y1493986D02*
Y1498021D01*
Y1506942D02*
Y1510927D01*
X1801575Y1450720D02*
Y1453641D01*
Y1454753D02*
Y1457709D01*
Y1470956D02*
Y1471644D01*
Y1475006D02*
Y1476724D01*
Y1494232D02*
Y1498612D01*
Y1506352D02*
Y1510665D01*
X1801969Y1451521D02*
Y1456945D01*
Y1470956D02*
Y1471644D01*
Y1473861D02*
Y1475692D01*
Y1494478D02*
Y1499202D01*
Y1505761D02*
Y1510370D01*
X1802362Y1452873D02*
Y1455481D01*
Y1470956D02*
Y1471644D01*
Y1472715D02*
Y1474661D01*
Y1494724D02*
Y1501730D01*
Y1502941D02*
Y1510075D01*
X1802756Y1470956D02*
Y1473629D01*
Y1494970D02*
Y1509779D01*
X1803150Y1470400D02*
Y1472597D01*
Y1495216D02*
Y1509230D01*
X1803543Y1469275D02*
Y1471565D01*
Y1495901D02*
Y1508640D01*
X1803937Y1468552D02*
Y1470534D01*
Y1496610D02*
Y1508049D01*
X1804331Y1449926D02*
Y1450494D01*
Y1455215D02*
Y1457701D01*
Y1468552D02*
Y1469502D01*
Y1497318D02*
Y1507459D01*
X1804724Y1449926D02*
Y1450494D01*
Y1454545D02*
Y1458151D01*
Y1498027D02*
Y1506868D01*
X1805118Y1449926D02*
Y1450494D01*
Y1454020D02*
Y1455199D01*
Y1457354D02*
Y1458432D01*
Y1499422D02*
Y1505445D01*
X1805512Y1449926D02*
Y1450494D01*
Y1453608D02*
Y1454560D01*
Y1457794D02*
Y1458680D01*
Y1477256D02*
Y1477294D01*
Y1501588D02*
Y1503083D01*
X1805906Y1449926D02*
Y1450494D01*
Y1453214D02*
Y1454100D01*
Y1458083D02*
Y1458720D01*
Y1476148D02*
Y1477294D01*
X1806299Y1449926D02*
Y1450494D01*
Y1452824D02*
Y1453706D01*
Y1458155D02*
Y1458759D01*
Y1475040D02*
Y1477248D01*
X1806693Y1449926D02*
Y1450494D01*
Y1452452D02*
Y1453313D01*
Y1458220D02*
Y1458764D01*
Y1473932D02*
Y1476142D01*
X1807087Y1449926D02*
Y1450494D01*
Y1452080D02*
Y1452919D01*
Y1458149D02*
Y1458685D01*
Y1472824D02*
Y1475036D01*
X1807480Y1449926D02*
Y1450494D01*
Y1451708D02*
Y1452525D01*
Y1458070D02*
Y1458617D01*
Y1471715D02*
Y1473930D01*
X1807874Y1449926D02*
Y1450494D01*
Y1451336D02*
Y1452132D01*
Y1457991D02*
Y1458537D01*
Y1470607D02*
Y1472824D01*
X1808268Y1449926D02*
Y1450494D01*
Y1450964D02*
Y1451738D01*
Y1457798D02*
Y1458301D01*
Y1469499D02*
Y1471717D01*
X1808661Y1449926D02*
Y1451344D01*
Y1457555D02*
Y1458012D01*
Y1468552D02*
Y1470611D01*
X1809055Y1449926D02*
Y1450950D01*
Y1468552D02*
Y1469360D01*
X1809449Y1468552D02*
Y1470179D01*
X1809843Y1469073D02*
Y1471316D01*
X1810236Y1470142D02*
Y1472422D01*
X1810630Y1471210D02*
Y1473529D01*
X1811024Y1472279D02*
Y1474635D01*
Y1518705D02*
Y1519799D01*
X1811417Y1473347D02*
Y1475741D01*
Y1493122D02*
Y1512203D01*
Y1517946D02*
Y1520557D01*
X1811811Y1474416D02*
Y1476847D01*
Y1493122D02*
Y1512203D01*
Y1517749D02*
Y1520754D01*
X1812205Y1475485D02*
Y1477294D01*
Y1493122D02*
Y1512203D01*
Y1517552D02*
Y1520951D01*
X1812598Y1476553D02*
Y1477294D01*
Y1493122D02*
Y1512203D01*
Y1517356D02*
Y1521148D01*
X1812992Y1493122D02*
Y1512203D01*
Y1517457D02*
Y1521046D01*
X1813386Y1493122D02*
Y1512203D01*
Y1517654D02*
Y1520849D01*
X1813780Y1493122D02*
Y1512203D01*
Y1517851D02*
Y1520653D01*
X1814173Y1493122D02*
Y1512203D01*
Y1518323D02*
Y1520180D01*
X1814567Y1519110D02*
Y1519393D01*
X1820472Y1493122D02*
Y1508385D01*
X1820866Y1493122D02*
Y1508976D01*
X1821260Y1493122D02*
Y1509566D01*
X1821654Y1493122D02*
Y1510157D01*
X1822047Y1493122D02*
Y1510655D01*
X1822441Y1493122D02*
Y1511049D01*
X1822835Y1493122D02*
Y1511443D01*
X1823228Y1493122D02*
Y1511836D01*
X1823622Y1506259D02*
Y1512215D01*
X1824016Y1507514D02*
Y1512264D01*
X1824409Y1508498D02*
Y1512313D01*
X1824803Y1508835D02*
Y1512362D01*
X1825197Y1509130D02*
Y1512412D01*
X1825591Y1509425D02*
Y1512461D01*
X1825984Y1509704D02*
Y1512510D01*
X1826378Y1509783D02*
Y1512559D01*
X1826772Y1509862D02*
Y1512498D01*
X1827165Y1509941D02*
Y1512433D01*
X1827559Y1510019D02*
Y1512367D01*
X1827953Y1510053D02*
Y1512301D01*
X1828346Y1509975D02*
Y1512236D01*
X1828740Y1509896D02*
Y1512090D01*
X1829134Y1509817D02*
Y1511893D01*
X1829528Y1509738D02*
Y1511697D01*
X1829921Y1509545D02*
Y1511495D01*
X1830315Y1509230D02*
Y1511199D01*
X1830709Y1508915D02*
Y1510904D01*
X1831102Y1508600D02*
Y1510609D01*
X1831496Y1508285D02*
Y1510269D01*
X1831890Y1507717D02*
Y1509875D01*
X1832283Y1507061D02*
Y1509482D01*
X1832677Y1506404D02*
Y1509088D01*
X1833071Y1503868D02*
Y1509076D01*
X1833465Y1493122D02*
Y1521579D01*
X1833858Y1493122D02*
Y1521579D01*
X1834252Y1493122D02*
Y1521579D01*
X1834646Y1493122D02*
Y1521579D01*
X1835039Y1493122D02*
Y1521579D01*
X1835433Y1493122D02*
Y1521579D01*
X1835827Y1493122D02*
Y1521579D01*
X1836220Y1493122D02*
Y1521579D01*
X1841732Y1501777D02*
Y1507234D01*
X1842126Y1501777D02*
Y1507908D01*
X1842520Y1501777D02*
Y1508538D01*
X1842913Y1494781D02*
Y1497202D01*
Y1501777D02*
Y1509168D01*
X1843307Y1494535D02*
Y1496956D01*
Y1501777D02*
Y1509798D01*
X1843701Y1494289D02*
Y1496710D01*
Y1501777D02*
Y1510245D01*
X1844094Y1494043D02*
Y1496464D01*
Y1501777D02*
Y1510527D01*
X1844488Y1493797D02*
Y1496218D01*
Y1501777D02*
Y1510808D01*
X1844882Y1493551D02*
Y1495972D01*
Y1501777D02*
Y1504268D01*
Y1506208D02*
Y1511089D01*
X1845276Y1493305D02*
Y1495726D01*
Y1501777D02*
Y1504268D01*
Y1507469D02*
Y1511370D01*
X1845669Y1493108D02*
Y1495594D01*
Y1501777D02*
Y1504268D01*
Y1508453D02*
Y1511651D01*
X1846063Y1493072D02*
Y1495551D01*
Y1501777D02*
Y1504268D01*
Y1508821D02*
Y1511876D01*
X1846457Y1493037D02*
Y1495507D01*
Y1501777D02*
Y1504268D01*
Y1509116D02*
Y1511955D01*
X1846850Y1493001D02*
Y1495463D01*
Y1501777D02*
Y1504268D01*
Y1509412D02*
Y1512034D01*
X1847244Y1492965D02*
Y1495419D01*
Y1501777D02*
Y1504268D01*
Y1509698D02*
Y1512112D01*
X1847638Y1492929D02*
Y1495376D01*
Y1501777D02*
Y1504268D01*
Y1509768D02*
Y1512191D01*
X1848031Y1492893D02*
Y1495332D01*
Y1501777D02*
Y1504268D01*
Y1509833D02*
Y1512270D01*
X1848425Y1492858D02*
Y1495288D01*
Y1501777D02*
Y1504268D01*
Y1509899D02*
Y1512349D01*
X1848819Y1492822D02*
Y1495259D01*
Y1501777D02*
Y1504268D01*
Y1509964D02*
Y1512427D01*
X1849213Y1492786D02*
Y1495315D01*
Y1501777D02*
Y1504268D01*
Y1510030D02*
Y1512506D01*
X1849606Y1492790D02*
Y1495372D01*
Y1501777D02*
Y1504268D01*
Y1510050D02*
Y1512534D01*
X1850000Y1492869D02*
Y1495428D01*
Y1501777D02*
Y1504268D01*
Y1509972D02*
Y1512455D01*
X1850394Y1492948D02*
Y1495484D01*
Y1501777D02*
Y1504268D01*
Y1509893D02*
Y1512376D01*
X1850787Y1493027D02*
Y1495540D01*
Y1501777D02*
Y1504268D01*
Y1509814D02*
Y1512298D01*
X1851181Y1493105D02*
Y1495597D01*
Y1501777D02*
Y1504268D01*
Y1509735D02*
Y1512219D01*
X1851575Y1493184D02*
Y1495756D01*
Y1501777D02*
Y1504268D01*
Y1509569D02*
Y1512140D01*
X1851969Y1493263D02*
Y1495992D01*
Y1501777D02*
Y1504268D01*
Y1509332D02*
Y1512061D01*
X1852362Y1493341D02*
Y1496228D01*
Y1501777D02*
Y1504268D01*
Y1509096D02*
Y1511983D01*
X1852756Y1493420D02*
Y1496464D01*
Y1501777D02*
Y1504268D01*
Y1508860D02*
Y1511904D01*
X1853150Y1493557D02*
Y1496701D01*
Y1501777D02*
Y1504268D01*
Y1508624D02*
Y1511745D01*
X1853543Y1493804D02*
Y1497223D01*
Y1501777D02*
Y1504268D01*
Y1508052D02*
Y1511450D01*
X1853937Y1494050D02*
Y1497814D01*
Y1501777D02*
Y1504268D01*
Y1507396D02*
Y1511154D01*
X1854331Y1494296D02*
Y1498404D01*
Y1501777D02*
Y1504268D01*
Y1506740D02*
Y1510859D01*
X1854724Y1494542D02*
Y1499036D01*
Y1501777D02*
Y1504268D01*
Y1505581D02*
Y1510564D01*
X1855118Y1494788D02*
Y1510268D01*
X1855512Y1495034D02*
Y1509973D01*
X1855906Y1495376D02*
Y1509587D01*
X1856299Y1496085D02*
Y1508879D01*
X1856693Y1496794D02*
Y1508170D01*
X1857087Y1497502D02*
Y1507461D01*
X1857480Y1498211D02*
Y1506753D01*
X1857874Y1500131D02*
Y1504979D01*
X1858268Y1502494D02*
Y1502814D01*
X1860630Y1512091D02*
Y1512203D01*
X1861024Y1511078D02*
Y1512203D01*
X1861417Y1510066D02*
Y1512203D01*
X1861811Y1509053D02*
Y1512203D01*
X1862205Y1508041D02*
Y1512203D01*
X1862598Y1507029D02*
Y1512203D01*
X1862992Y1506016D02*
Y1512203D01*
X1863386Y1505004D02*
Y1512203D01*
X1863780Y1503992D02*
Y1512166D01*
X1864173Y1502979D02*
Y1511070D01*
X1864567Y1501967D02*
Y1509973D01*
X1864961Y1500954D02*
Y1508876D01*
X1865354Y1499942D02*
Y1507779D01*
X1865748Y1498930D02*
Y1506683D01*
X1866142Y1497917D02*
Y1505586D01*
X1866535Y1496905D02*
Y1504489D01*
X1866929Y1495893D02*
Y1503392D01*
X1867323Y1494880D02*
Y1502296D01*
X1867717Y1493868D02*
Y1501199D01*
X1868110Y1493122D02*
Y1500102D01*
X1868504Y1493122D02*
Y1499005D01*
X1868898Y1493122D02*
Y1497337D01*
X1869291Y1493122D02*
Y1495614D01*
X1869685Y1493122D02*
Y1495613D01*
X1870079Y1493122D02*
Y1496612D01*
X1870472Y1493122D02*
Y1498187D01*
X1870866Y1493122D02*
Y1499460D01*
X1871260Y1493122D02*
Y1500610D01*
X1871654Y1493964D02*
Y1501761D01*
X1872047Y1495027D02*
Y1502912D01*
X1872441Y1496090D02*
Y1504063D01*
X1872835Y1497153D02*
Y1505214D01*
X1873228Y1498216D02*
Y1506364D01*
X1873622Y1499279D02*
Y1507515D01*
X1874016Y1500342D02*
Y1508666D01*
X1874409Y1501405D02*
Y1509817D01*
X1874803Y1502468D02*
Y1510968D01*
X1875197Y1503531D02*
Y1512119D01*
X1875591Y1504594D02*
Y1512203D01*
X1875984Y1505657D02*
Y1512203D01*
X1876378Y1506720D02*
Y1512203D01*
X1876772Y1507783D02*
Y1512203D01*
X1877165Y1508846D02*
Y1512203D01*
X1877559Y1509909D02*
Y1512203D01*
X1877953Y1510972D02*
Y1512203D01*
X1878346Y1512035D02*
Y1512203D01*
*
G04 PC Custom Flashes*
G04 Layer Name imu.pcb - flashes*
%LPD*%
*
*
G04 PC Circuitry*
G04 Layer Name imu.pcb - circuitry*
%LPD*%
*
G54D10*
X1649097Y1442013D02*
Y1439688D01*
Y1442013D02*
X1648291D01*
X1648023Y1441903*
X1647934Y1441792*
X1647844Y1441570*
Y1441349*
X1647934Y1441127*
X1648023Y1441017*
X1648291Y1440906*
X1649097*
X1648470D02*
X1647844Y1439688D01*
X1646860Y1442013D02*
X1645876D01*
X1646412Y1441127*
X1646144*
X1645965Y1441017*
X1645876Y1440906*
X1645786Y1440574*
Y1440352*
X1645876Y1440020*
X1646055Y1439799*
X1646323Y1439688*
X1646591*
X1646860Y1439799*
X1646949Y1439909*
X1647039Y1440131*
X1644981Y1441570D02*
X1644802Y1441681D01*
X1644533Y1442013*
Y1439688*
X1649298Y1544735D02*
Y1542410D01*
Y1544735D02*
X1648493D01*
X1648224Y1544625*
X1648135Y1544514*
X1648045Y1544292*
Y1544071*
X1648135Y1543850*
X1648224Y1543739*
X1648493Y1543628*
X1649298*
X1648672D02*
X1648045Y1542410D01*
X1647061Y1544735D02*
X1646077D01*
X1646614Y1543850*
X1646345*
X1646166Y1543739*
X1646077Y1543628*
X1645987Y1543296*
Y1543074*
X1646077Y1542742*
X1646256Y1542521*
X1646524Y1542410*
X1646793*
X1647061Y1542521*
X1647151Y1542631*
X1647240Y1542853*
X1644645Y1544735D02*
X1644914Y1544625D01*
X1645093Y1544292*
X1645182Y1543739*
Y1543407*
X1645093Y1542853*
X1644914Y1542521*
X1644645Y1542410*
X1644466*
X1644198Y1542521*
X1644019Y1542853*
X1643929Y1543407*
Y1543739*
X1644019Y1544292*
X1644198Y1544625*
X1644466Y1544735*
X1644645*
X1681481Y1433276D02*
X1678897D01*
X1681481Y1434529D02*
X1679758Y1433276D01*
X1680374Y1433724D02*
X1678897Y1434529D01*
X1680989Y1435334D02*
X1681112Y1435513D01*
X1681481Y1435782*
X1678897*
X1979041Y1473513D02*
Y1475838D01*
Y1473513D02*
X1979667D01*
X1979936Y1473624*
X1980115Y1473845*
X1980204Y1474066*
X1980294Y1474399*
Y1474952*
X1980204Y1475284*
X1980115Y1475506*
X1979936Y1475727*
X1979667Y1475838*
X1979041*
X1981099Y1473956D02*
X1981278Y1473845D01*
X1981546Y1473513*
Y1475838*
X1978521Y1489045D02*
Y1491371D01*
Y1489045D02*
X1979148D01*
X1979416Y1489156*
X1979595Y1489377*
X1979685Y1489599*
X1979774Y1489931*
Y1490485*
X1979685Y1490817*
X1979595Y1491038*
X1979416Y1491260*
X1979148Y1491371*
X1978521*
X1980669Y1489599D02*
Y1489488D01*
X1980758Y1489267*
X1980848Y1489156*
X1981027Y1489045*
X1981385*
X1981564Y1489156*
X1981653Y1489267*
X1981743Y1489488*
Y1489710*
X1981653Y1489931*
X1981474Y1490263*
X1980579Y1491371*
X1981832*
X1977922Y1481159D02*
Y1483484D01*
Y1481159D02*
X1978548D01*
X1978817Y1481270*
X1978996Y1481491*
X1979085Y1481713*
X1979175Y1482045*
Y1482599*
X1979085Y1482931*
X1978996Y1483152*
X1978817Y1483374*
X1978548Y1483484*
X1977922*
X1980159Y1481159D02*
X1981143D01*
X1980606Y1482045*
X1980875*
X1981054Y1482156*
X1981143Y1482266*
X1981233Y1482599*
Y1482820*
X1981143Y1483152*
X1980964Y1483374*
X1980696Y1483484*
X1980427*
X1980159Y1483374*
X1980069Y1483263*
X1979980Y1483042*
X1978441Y1496718D02*
Y1499044D01*
Y1496718D02*
X1979068D01*
X1979336Y1496829*
X1979515Y1497050*
X1979605Y1497272*
X1979694Y1497604*
Y1498158*
X1979605Y1498490*
X1979515Y1498711*
X1979336Y1498933*
X1979068Y1499044*
X1978441*
X1981394Y1496718D02*
X1980499Y1498268D01*
X1981842*
X1981394Y1496718D02*
Y1499044D01*
X1978122Y1504631D02*
Y1506956D01*
Y1504631D02*
X1978748D01*
X1979016Y1504742*
X1979195Y1504963*
X1979285Y1505185*
X1979374Y1505517*
Y1506070*
X1979285Y1506403*
X1979195Y1506624*
X1979016Y1506846*
X1978748Y1506956*
X1978122*
X1981343Y1504631D02*
X1980448D01*
X1980359Y1505628*
X1980448Y1505517*
X1980717Y1505406*
X1980985*
X1981253Y1505517*
X1981432Y1505738*
X1981522Y1506070*
X1981432Y1506292*
X1981343Y1506624*
X1981164Y1506846*
X1980895Y1506956*
X1980627*
X1980359Y1506846*
X1980269Y1506735*
X1980180Y1506513*
X1977962Y1511265D02*
Y1513590D01*
Y1511265D02*
X1978588D01*
X1978857Y1511376*
X1979036Y1511597*
X1979125Y1511819*
X1979215Y1512151*
Y1512704*
X1979125Y1513037*
X1979036Y1513258*
X1978857Y1513479*
X1978588Y1513590*
X1977962*
X1981094Y1511597D02*
X1981004Y1511376D01*
X1980736Y1511265*
X1980557*
X1980288Y1511376*
X1980109Y1511708*
X1980020Y1512261*
Y1512815*
X1980109Y1513258*
X1980288Y1513479*
X1980557Y1513590*
X1980646*
X1980915Y1513479*
X1981094Y1513258*
X1981183Y1512926*
Y1512815*
X1981094Y1512483*
X1980915Y1512261*
X1980646Y1512151*
X1980557*
X1980288Y1512261*
X1980109Y1512483*
X1980020Y1512815*
X2023920Y1410459D02*
Y1570459D01*
G75*
G03X1988920Y1605459I-35000J0D01*
G01X1599667*
X1599682Y1605460D02*
G03X1574814Y1578226I1041J-25921D01*
G01Y1578224D02*
X1574919Y1410459D01*
X1574920Y1410466D02*
G03X1602073Y1375460I31079J-3926D01*
G01X1602080Y1375459D02*
X1988920D01*
G03X2023920Y1410459I-0J35000*
G01X1962792Y1525096D02*
G03X1962792I-5215J0D01*
G01X1962563Y1448048D02*
G03X1962563I-5094J0D01*
G54D53*
G54D65*
G01X1652765Y1443824D02*
X1655265D01*
Y1446324*
Y1449324D02*
Y1451824D01*
X1652765*
X1640765Y1443824D02*
X1638265D01*
Y1446324*
X1640765Y1451824D02*
X1638265D01*
Y1449324*
X1645765Y1447824D02*
X1647265Y1449324D01*
X1645765Y1450824*
Y1444824D02*
X1647265Y1446324D01*
X1645765Y1447824*
X1646765Y1448824*
X1652765Y1545996D02*
X1655265D01*
Y1548496*
Y1551496D02*
Y1553996D01*
X1652765*
X1640765Y1545996D02*
X1638265D01*
Y1548496*
X1640765Y1553996D02*
X1638265D01*
Y1551496*
X1645765Y1549996D02*
X1647265Y1551496D01*
X1645765Y1552996*
Y1546996D02*
X1647265Y1548496D01*
X1645765Y1549996*
X1646765Y1550996*
X1574731Y1624859D02*
X1781181D01*
X1574731D02*
X1584731Y1627359D01*
Y1622359*
X1574731Y1624859*
X2024086D02*
X1817636D01*
X2024086D02*
X2014086Y1622359D01*
Y1627359*
X2024086Y1624859*
X1574731Y1566341D02*
Y1629859D01*
X2024086Y1534622D02*
Y1629859D01*
X1784181Y1626422D02*
X1784636Y1626734D01*
X1785318Y1627672*
Y1621109*
X1787363Y1626422D02*
X1787818Y1626734D01*
X1788500Y1627672*
Y1621109*
X1792818Y1627672D02*
X1790545Y1623297D01*
X1793954*
X1792818Y1627672D02*
Y1621109D01*
X1796227Y1621734D02*
X1796000Y1621422D01*
X1796227Y1621109*
X1796454Y1621422*
X1796227Y1621734*
X1798500Y1626422D02*
X1798954Y1626734D01*
X1799636Y1627672*
Y1621109*
X1801681Y1625484D02*
Y1621109D01*
Y1624234D02*
X1802363Y1625172D01*
X1802818Y1625484*
X1803500*
X1803954Y1625172*
X1804181Y1624234*
Y1621109*
Y1624234D02*
X1804863Y1625172D01*
X1805318Y1625484*
X1806000*
X1806454Y1625172*
X1806681Y1624234*
Y1621109*
X1808727Y1625484D02*
Y1621109D01*
Y1624234D02*
X1809409Y1625172D01*
X1809863Y1625484*
X1810545*
X1811000Y1625172*
X1811227Y1624234*
Y1621109*
Y1624234D02*
X1811909Y1625172D01*
X1812363Y1625484*
X1813045*
X1813500Y1625172*
X1813727Y1624234*
Y1621109*
X1555888Y1375617D02*
Y1483785D01*
Y1375617D02*
X1553388Y1385617D01*
X1558388*
X1555888Y1375617*
Y1605454D02*
Y1497285D01*
Y1605454D02*
X1558388Y1595454D01*
X1553388*
X1555888Y1605454*
X1628806Y1375617D02*
X1550888D01*
X1642152Y1605454D02*
X1550888D01*
X1543047Y1493348D02*
X1540774D01*
X1540547Y1490535*
X1540774Y1490848*
X1541456Y1491160*
X1542138*
X1542819Y1490848*
X1543274Y1490223*
X1543501Y1489285*
X1543274Y1488660*
X1543047Y1487723*
X1542592Y1487098*
X1541910Y1486785*
X1541229*
X1540547Y1487098*
X1540319Y1487410*
X1540092Y1488035*
X1546683Y1493348D02*
X1546001Y1493035D01*
X1545774Y1492410*
Y1491785*
X1546001Y1491160*
X1546456Y1490848*
X1547365Y1490535*
X1548047Y1490223*
X1548501Y1489598*
X1548729Y1488973*
Y1488035*
X1548501Y1487410*
X1548274Y1487098*
X1547592Y1486785*
X1546683*
X1546001Y1487098*
X1545774Y1487410*
X1545547Y1488035*
Y1488973*
X1545774Y1489598*
X1546229Y1490223*
X1546910Y1490535*
X1547819Y1490848*
X1548274Y1491160*
X1548501Y1491785*
Y1492410*
X1548274Y1493035*
X1547592Y1493348*
X1546683*
X1551001Y1487410D02*
X1550774Y1487098D01*
X1551001Y1486785*
X1551229Y1487098*
X1551001Y1487410*
X1555547Y1493348D02*
X1553274Y1488973D01*
X1556683*
X1555547Y1493348D02*
Y1486785D01*
X1558729Y1491160D02*
Y1486785D01*
Y1489910D02*
X1559410Y1490848D01*
X1559865Y1491160*
X1560547*
X1561001Y1490848*
X1561229Y1489910*
Y1486785*
Y1489910D02*
X1561910Y1490848D01*
X1562365Y1491160*
X1563047*
X1563501Y1490848*
X1563729Y1489910*
Y1486785*
X1565774Y1491160D02*
Y1486785D01*
Y1489910D02*
X1566456Y1490848D01*
X1566910Y1491160*
X1567592*
X1568047Y1490848*
X1568274Y1489910*
Y1486785*
Y1489910D02*
X1568956Y1490848D01*
X1569410Y1491160*
X1570092*
X1570547Y1490848*
X1570774Y1489910*
Y1486785*
G54D108*
X1574731Y1561341D02*
X1574734D01*
X2024086Y1529622D02*
X2024089D01*
X1633806Y1375617D02*
X1633809D01*
X1647152Y1605454D02*
X1647155D01*
G54D110*
X1970905Y1473238D02*
X1968655D01*
Y1476238*
X1970905*
X1973405Y1473238D02*
X1975655D01*
Y1476238*
X1973405*
X1970905Y1489143D02*
X1968655D01*
Y1492143*
X1970905*
X1973405Y1489143D02*
X1975655D01*
Y1492143*
X1973405*
X1970905Y1481005D02*
X1968655D01*
Y1484005*
X1970905*
X1973405Y1481005D02*
X1975655D01*
Y1484005*
X1973405*
X1970905Y1496731D02*
X1968655D01*
Y1499731*
X1970905*
X1973405Y1496731D02*
X1975655D01*
Y1499731*
X1973405*
X1970905Y1504524D02*
X1968655D01*
X1968655D02*
Y1507524D01*
X1968655D02*
X1970905D01*
X1973405Y1504524D02*
X1975655D01*
X1975655D02*
Y1507524D01*
X1975655D02*
X1973405D01*
X1970905Y1511393D02*
X1968655D01*
Y1514393*
X1970905*
X1973405Y1511393D02*
X1975655D01*
Y1514393*
X1973405*
G54D111*
X1971555Y1474938D02*
G03X1972055I250J-190D01*
G01X1972255D02*
G03X1972755I250J-190D01*
G01X1971555Y1490843D02*
G03X1972055I250J-190D01*
G01X1972255D02*
G03X1972755I250J-190D01*
G01X1971555Y1482705D02*
G03X1972055I250J-190D01*
G01X1972255D02*
G03X1972755I250J-190D01*
G01X1971555Y1498431D02*
G03X1972055I250J-189D01*
G01X1972255D02*
G03X1972755I250J-189D01*
G01X1971555Y1506224D02*
G03X1972055I250J-189D01*
G01X1972255D02*
G03X1972755I250J-189D01*
G01X1971555Y1513093D02*
G03X1972055I250J-190D01*
G01X1972255D02*
G03X1972755I250J-190D01*
G74*
G01X0Y0D02*
M02*
